<?xml version="1.0" encoding="UTF-8"?><svg id="Layer_1" xmlns="http://www.w3.org/2000/svg" viewBox="0 0 1000 1000"><defs><style>.cls-1{fill:#e0e0e0;}.cls-2{fill:#3c3c3c;}</style></defs><rect class="cls-1" width="1000" height="1000"/><path class="cls-2" d="M291.2,266.8h227.2c53.33,0,93.33,11.48,120,34.4,28.26,24.54,42.4,55.74,42.4,93.6s-14.4,69.34-43.2,91.2c47.46,24.54,71.2,61.34,71.2,110.4,0,18.67-2.8,35.47-8.4,50.4-5.6,14.94-12.28,27.08-20,36.4-7.74,9.34-18,17.47-30.8,24.4-12.8,6.94-24.4,12-34.8,15.2-10.4,3.2-23.34,5.6-38.8,7.2-15.47,1.6-27.08,2.54-34.8,2.8-7.74,.28-17.74,.4-30,.4h-220v-65.6h64.8V332.4h-64.8v-65.6Zm225.6,65.6h-91.2v125.6h87.2c11.73,0,21.6-.52,29.6-1.6,8-1.06,18-3.46,30-7.2,12-3.72,21.2-10.53,27.6-20.4,6.4-9.86,9.6-22.52,9.6-38,0-38.92-30.94-58.4-92.8-58.4Zm-10.4,191.2h-80.8v144h84c21.32,0,38.66-.66,52-2,13.32-1.33,26.26-4.12,38.8-8.4,12.52-4.26,21.72-11.06,27.6-20.4,5.86-9.32,8.8-21.46,8.8-36.4,0-51.2-43.47-76.8-130.4-76.8Z"/></svg>