<?xml version="1.0" encoding="UTF-8"?><svg id="Layer_1" xmlns="http://www.w3.org/2000/svg" viewBox="0 0 1000 1000"><defs><style>.cls-1{stroke:#c44e52;}.cls-1,.cls-2,.cls-3,.cls-4{fill:none;stroke-linecap:round;stroke-miterlimit:10;stroke-width:8px;}.cls-2{stroke:#de8b5e;}.cls-3{stroke:#4c72b0;}.cls-4{stroke:#55a868;}.cls-5{fill:#e0dfea;}.cls-6{fill:#19375e;}</style></defs><rect class="cls-5" width="1000" height="1000"/><g><g><path class="cls-6" d="M109.13,346.65h15.94c-.53,6.64-.8,13.15-.8,19.53,0,8.5,.8,16.74,2.39,24.71l-16.74,2.19c-.4-3.19-.77-5.78-1.1-7.77-.33-1.99-1.13-4.61-2.39-7.87-1.26-3.25-2.82-5.81-4.68-7.67-1.86-1.86-4.52-3.55-7.97-5.08-3.46-1.53-7.51-2.29-12.16-2.29-10.5,0-19.2,4.08-26.11,12.25-6.91,8.17-10.36,18.97-10.36,32.38s3.32,23.58,9.96,31.68c6.64,8.1,16.27,12.16,28.9,12.16,7.7,0,16.34-1.79,25.91-5.38v-19.73h-28.7v-16.34h55.4v16.34h-9.37v31.68c-16.34,7.04-30.82,10.56-43.44,10.56s-23.15-3.02-31.98-9.07c-8.84-6.04-15.21-13.55-19.13-22.52-3.92-8.97-5.88-18.7-5.88-29.19,0-17.93,5.25-32.75,15.74-44.44,10.49-11.69,23.12-17.54,37.86-17.54,11.03,0,20.19,4.12,27.5,12.36l1.2-10.96Z"/><path class="cls-6" d="M139.02,374.55h28.5v6.58c7.04-6.24,13.42-9.37,19.13-9.37,6.38,0,11.82,3.12,16.34,9.37,2.39-1.99,4.22-3.45,5.48-4.38,1.26-.93,3.42-1.99,6.48-3.19,3.05-1.2,6.11-1.79,9.17-1.79,16.87,0,25.31,12.29,25.31,36.87v39.85h9.17v16.34h-26.5v-56.2c0-3.72-.07-6.44-.2-8.17-.13-1.73-.43-3.65-.9-5.78-.47-2.12-1.33-3.62-2.59-4.48-1.26-.86-2.96-1.3-5.08-1.3s-4.22,.67-6.28,1.99c-2.06,1.33-3.46,2.43-4.18,3.29-.73,.87-2.16,2.56-4.28,5.08v49.22h11.76v16.34h-29.09v-56.99c0-2.66-.07-4.75-.2-6.28-.13-1.53-.43-3.45-.9-5.78-.47-2.32-1.33-4.05-2.59-5.18-1.26-1.13-2.96-1.69-5.08-1.69-3.86,0-8.77,2.86-14.75,8.57v51.01h13.75v16.34h-42.45v-16.34h11.36v-57.59h-11.36v-16.34Z"/><path class="cls-6" d="M353.24,403.64v44.84h17.14v16.34h-34.47v-9.57c-11.29,8.24-22.25,12.36-32.88,12.36s-18.43-3.15-25.01-9.47c-6.58-6.31-9.86-13.52-9.86-21.62,0-3.32,.73-6.74,2.19-10.26,1.46-3.52,3.79-7.04,6.97-10.56,3.19-3.52,7.9-6.41,14.15-8.67,6.24-2.26,13.48-3.39,21.72-3.39,5.58,0,13.15,.53,22.72,1.59,0-2.52-.13-4.48-.4-5.88-.27-1.39-.93-3.19-1.99-5.38-1.06-2.19-3.02-3.82-5.88-4.88-2.86-1.06-6.61-1.59-11.26-1.59-9.17,0-20.79,3.06-34.87,9.17l-6.78-15.94c16.87-6.91,30.82-10.36,41.85-10.36,12.35,0,21.55,2.89,27.6,8.67,6.04,5.78,9.07,13.98,9.07,24.61Zm-17.34,28.89v-10.36c-10.23-1.46-17.14-2.19-20.72-2.19-5.31,0-9.9,.53-13.75,1.59-3.85,1.06-6.74,2.26-8.67,3.59-1.93,1.33-3.42,2.89-4.48,4.68-1.07,1.79-1.69,3.19-1.89,4.18-.2,1-.3,1.89-.3,2.69,0,3.59,1.69,6.78,5.08,9.57,3.39,2.79,7.27,4.18,11.66,4.18,11.29,0,22.32-5.98,33.08-17.93Z"/><path class="cls-6" d="M401.06,374.55h45.83v73.93h33.28v16.34h-84.49v-16.34h33.88v-57.59h-28.5v-16.34Zm24.71-17.34v-26.3h21.12v26.3h-21.12Z"/><path class="cls-6" d="M516.04,339.08l50.02-3.39v112.79h33.48v16.34h-84.29v-16.34h33.48v-94.85l-31.09,1.99-1.6-16.54Z"/><path class="cls-6" d="M28.42,587.77H127.66l1,43.04h-16.54l-1.79-26.7H62.3v30.49h23.51v-14.35h16.54v44.84h-16.54v-14.15h-23.51v36.67h49.82l1-26.9h16.54v43.24H28.42v-16.34h16.54v-83.5H28.42v-16.34Z"/><path class="cls-6" d="M145,613.67h46.23v16.34h-8.37l15.54,14.95,16.74-14.95h-8.97v-16.34h44.44v16.34h-13.15l-27.3,26.7,31.88,30.89h13.55v16.34h-47.03v-16.34h9.17l-19.33-19.13-19.53,19.13h9.17v16.34h-46.03v-16.34h14.35l30.29-30.89-28.1-26.7h-13.55v-16.34Z"/><path class="cls-6" d="M260.58,613.67h33.08v7.57c8.1-6.91,18-10.36,29.69-10.36,13.68,0,24.88,4.72,33.58,14.15,8.7,9.43,13.05,20.33,13.05,32.68,0,13.68-4.75,25.04-14.25,34.08-9.5,9.04-20.23,13.55-32.18,13.55-11.29,0-21.26-3.65-29.89-10.96v23.51h28.7v16.34h-61.77v-16.34h15.74v-87.88h-15.74v-16.34Zm32.28,43.64c0,9.43,3.19,16.94,9.57,22.52,6.38,5.58,13.28,8.37,20.72,8.37,7.84,0,14.55-2.92,20.13-8.77,5.58-5.84,8.37-13.08,8.37-21.72,0-7.84-2.46-14.75-7.37-20.72-4.92-5.98-11.89-8.97-20.92-8.97s-16.04,2.89-21.82,8.67c-5.78,5.78-8.67,12.65-8.67,20.62Z"/><path class="cls-6" d="M396.48,578.2l50.02-3.39v112.79h33.48v16.34h-84.29v-16.34h33.48v-94.85l-31.09,1.99-1.59-16.54Z"/><path class="cls-6" d="M505.88,658.11c0-13.68,4.68-25.21,14.05-34.57,9.37-9.37,21.88-14.05,37.56-14.05s28.53,4.78,37.76,14.35c9.23,9.57,13.85,20.99,13.85,34.28s-4.52,24.38-13.55,34.08c-9.04,9.7-21.72,14.55-38.06,14.55s-28.7-4.78-37.86-14.35c-9.17-9.57-13.75-20.99-13.75-34.28Zm18.33,0c0,8.64,2.95,16.04,8.87,22.22,5.91,6.18,14.05,9.27,24.41,9.27s18.83-3.12,24.61-9.37c5.78-6.24,8.67-13.62,8.67-22.12s-2.89-15.87-8.67-22.12c-5.78-6.24-13.98-9.37-24.61-9.37s-18.67,3.06-24.51,9.17c-5.85,6.11-8.77,13.55-8.77,22.32Z"/><path class="cls-6" d="M631.42,613.67h39.46v14.75c3.72-3.59,6.88-6.38,9.47-8.37,2.59-1.99,6.34-4.02,11.26-6.08,4.91-2.06,10.03-3.09,15.34-3.09,4.65,0,8.97,.8,12.95,2.39,3.99,1.59,6.78,3.06,8.37,4.38,1.59,1.33,3.52,3.12,5.78,5.38l-17.74,13.55c-3.32-5.71-7.57-8.57-12.75-8.57-1.59,0-3.29,.3-5.08,.9s-3.56,1.36-5.28,2.29c-1.73,.93-3.49,2.06-5.28,3.39-1.79,1.33-3.42,2.62-4.88,3.89-1.46,1.26-2.96,2.62-4.48,4.09-1.53,1.46-2.76,2.66-3.69,3.59-.93,.93-1.79,1.86-2.59,2.79l-1.4,1.4v37.26h36.87v16.34h-78.12v-16.34h23.91v-57.59h-22.12v-16.34Z"/><path class="cls-6" d="M843.64,675.25l7.97,15.34c-18.6,10.76-35.8,16.14-51.61,16.14s-28.43-4.58-37.46-13.75c-9.04-9.17-13.55-20.39-13.55-33.68s4.55-24.84,13.65-34.27c9.1-9.43,21.09-14.15,35.97-14.15s26.33,4.35,34.77,13.05c8.44,8.7,12.65,18.43,12.65,29.19,0,4.52-.2,8.57-.6,12.16h-78.12c.66,2.79,1.43,5.15,2.29,7.07,.86,1.93,2.39,4.42,4.58,7.47,2.19,3.06,5.48,5.45,9.86,7.17,4.38,1.73,9.57,2.59,15.54,2.59,13.15,0,27.83-4.78,44.04-14.35Zm-75.13-26.3h59.18c-3.72-13.95-13.35-20.92-28.89-20.92s-25.11,6.97-30.29,20.92Z"/><path class="cls-6" d="M870.54,613.67h39.46v14.75c3.72-3.59,6.88-6.38,9.47-8.37,2.59-1.99,6.34-4.02,11.26-6.08,4.91-2.06,10.03-3.09,15.34-3.09,4.65,0,8.97,.8,12.95,2.39,3.99,1.59,6.78,3.06,8.37,4.38,1.59,1.33,3.52,3.12,5.78,5.38l-17.74,13.55c-3.32-5.71-7.57-8.57-12.75-8.57-1.59,0-3.29,.3-5.08,.9s-3.56,1.36-5.28,2.29c-1.73,.93-3.49,2.06-5.28,3.39-1.79,1.33-3.42,2.62-4.88,3.89-1.46,1.26-2.96,2.62-4.48,4.09-1.53,1.46-2.76,2.66-3.69,3.59-.93,.93-1.79,1.86-2.59,2.79l-1.4,1.4v37.26h36.87v16.34h-78.12v-16.34h23.91v-57.59h-22.12v-16.34Z"/></g><g><path class="cls-1" d="M631.42,460.99h322.15s1.89-.51,2.34-.93c.79-.72,1.4-2.83,1.86-3.78,.24-.51,.5-1.67,.94-2.03,.34-.29,1.31-.57,1.76-.48,.56,.11,1.19,1.27,1.75,1.38,.88,.18,2.64-1.27,3.47-.93s1.74,3.16,1.74,3.16"/><path class="cls-4" d="M631.42,460.99h203.04s3.33-.56,4.33-1.03c1.05-.49,2.95-1.9,3.67-2.78,.87-1.07,1.88-3.66,2.35-4.93,1.13-3.03,2.71-9.31,3.39-12.46s1.52-9.48,1.98-12.64c.85-5.98,2.19-17.97,3.1-23.94,.59-3.87,1.77-11.62,2.73-15.42,.4-1.6,1.12-4.91,2.07-6.28,.26-.37,.96-1.06,1.41-1.14s1.29,.34,1.67,.56c.48,.28,1.17,1.16,1.6,1.5s1.35,1.1,1.91,1.23c.4,.09,1.25-.06,1.65-.18,.58-.17,1.56-.93,2.14-1.08,.32-.08,1.02-.17,1.32-.04,.63,.26,1.42,1.43,1.76,2,.44,.73,.93,2.37,1.18,3.18,.68,2.22,1.66,6.74,2.19,8.99,.85,3.67,2.18,11.1,3.27,14.71,.32,1.07,.79,3.38,1.62,4.17,.31,.3,1.24,.74,1.66,.6,.52-.17,.88-1.33,1.13-1.79s.7-1.46,.88-1.97c.7-2.04,1.54-6.27,2.04-8.37,.77-3.22,2.02-9.74,3.01-12.91,.3-.96,.9-2.9,1.47-3.74,.32-.46,1.1-1.42,1.66-1.52,.46-.09,1.38,.38,1.76,.66,.63,.47,1.36,1.88,1.85,2.48,.37,.45,1.1,1.37,1.54,1.76,.37,.33,1.2,.89,1.63,1.14,.76,.43,2.47,.93,3.2,1.4,.55,.36,1.52,1.28,1.91,1.79,.54,.7,1.3,2.29,1.66,3.08,.72,1.56,1.87,4.79,2.48,6.4s1.61,4.77,2.35,6.28c.34,.7,1,2.18,1.63,2.66,.37,.27,1.34,.64,1.79,.51,.66-.19,1.42-1.46,1.76-2.03,1.08-1.83,2.14-5.97,2.89-7.95,.59-1.57,1.73-4.71,2.41-6.25,.28-.63,.8-1.94,1.25-2.48,.37-.44,1.27-1.28,1.85-1.4,.54-.12,1.65,.26,2.16,.45,.32,.12,.86,.58,1.19,.66,.41,.1,1.3,.13,1.69-.03,.5-.21,1.21-1.08,1.54-1.49,.45-.58,1.12-1.87,1.47-2.51,.54-.99,1.46-3.05,2.07-4.01,.35-.55,1-1.78,1.6-2.06,.37-.18,1.3-.17,1.66,.03,.68,.38,1.29,1.89,1.6,2.57,.94,2.06,1.98,6.48,2.63,8.64,.62,2.03,1.49,6.22,2.45,8.13,.35,.69,1.06,2.39,1.85,2.51,.5,.08,1.33-.75,1.63-1.14,.8-1.05,1.35-3.68,1.69-4.93,.92-3.36,2.07-10.23,2.79-13.63,.54-2.56,1.53-7.71,2.26-10.22,.31-1.06,.76-3.32,1.51-4.15,.31-.34,1.21-.95,1.66-.84,.84,.22,1.48,2.05,1.82,2.81,.61,1.35,1.25,4.25,1.6,5.68,.5,2.03,1.3,6.14,1.69,8.19,.51,2.62,1.45,7.89,1.88,10.52,.31,1.85,.83,5.56,1.13,7.41,.54,3.35,2.26,13.39,2.26,13.39"/><path class="cls-2" d="M966.43,371.87s-2.2-34.09-3.2-45.43c-.47-5.39-1.52-16.16-2.26-21.52-.29-2.12-.86-6.37-1.44-8.43-.19-.68-.58-2.1-1.07-2.63-.16-.18-.63-.48-.88-.48-.38,0-1.06,.45-1.32,.72-.76,.79-1.48,2.89-1.88,3.89-.67,1.65-1.61,5.09-2.26,6.76-.36,.93-.95,2.9-1.63,3.65-.31,.35-1.15,.96-1.63,.96-.4,0-1.06-.55-1.32-.84-.61-.7-1.17-2.49-1.51-3.35-1.08-2.75-2.63-8.45-3.76-11.18-.44-1.06-1.27-3.27-2.07-4.12-.43-.46-1.61-1.05-2.2-1.32-.75-.34-2.45-.57-3.14-1.02-.56-.36-1.41-1.42-1.76-1.97-1.28-2.08-2.61-6.8-3.58-9.03-.66-1.53-1.7-4.78-2.82-6.04-.22-.25-.79-.71-1.13-.72-.42,0-1.17,.53-1.44,.84-1.06,1.22-1.81,4.41-2.32,5.92-1.33,3.94-2.65,12.23-4.52,15.96-.18,.37-.69,1.04-1,1.32s-.97,.85-1.38,.84c-.37-.01-.96-.56-1.19-.84-.98-1.15-1.95-4.03-2.57-5.38s-1.74-4.05-2.38-5.38c-.15-.3-.37-.97-.63-1.2-.24-.21-.87-.49-1.19-.48s-.95,.33-1.19,.54c-.29,.25-.64,.93-.82,1.26-1.17,2.15-2.34,7.04-3.95,8.91-.34,.39-1.24,1.04-1.76,1.14-.39,.08-1.22-.11-1.57-.3s-.78-.92-1.07-1.2c-.22-.21-.65-.67-.94-.78-.25-.09-.81-.08-1.07,0-.48,.15-1.33,.75-1.63,1.14-.74,.97-1.26,3.38-1.57,4.54-1.67,6.3-3.24,19.26-4.77,25.59-1.08,4.48-3.59,13.38-5.27,17.7-2.7,6.92-9,20.49-13.05,26.78-.77,1.2-2.8,3.27-3.64,4.42s-2.46,3.4-3.01,4.66c-2.14,4.88-3.79,15.46-5.27,20.56s-3.34,15.06-6.27,19.25c-1.09,1.55-4.69,3.41-6.02,4.78-1.88,1.94-4.44,6.74-6.4,8.61s-6.75,4.1-8.66,5.86c-3.23,2.98-7.26,11.13-10.91,13.63-1.51,1.03-5.35,1.51-7.03,2.27-4.53,2.07-11.8,8.65-16.59,10.07-.72,.21-3.36,.2-3.36,.2h-159.76"/><path class="cls-3" d="M631.42,460.99s21.95-.88,33.59-2.74c7.87-1.26,17-6.97,21.42-7.17s11.93,3.62,19.76,5.68c8.77,2.31,17.79,1.97,22.61,1.97,5.1,0,11.21-4.42,20.92-3.71,7.94,.58,13.49,.97,17.09-.99,5.74-3.11,12.08-32.65,13.74-38.74,4.61-16.95,8.91-31.46,14.77-47.91,2.31-6.49,11.51-17.35,16.59-26.65,5.11-9.37,6.7-13.24,9.95-19.42,.8-1.52,3.23-5.17,4.74-5.18,1.85,0,3.37,2.13,4.01,3.25,6.42,11.24,11.86,31.7,15.97,47.29,1.55,5.88,2.66,11.73,5.95,14.57,1.12,.96,3.23-1.65,4.01-2.87,2.89-4.48,5.41-10.98,9.53-13.87,2.6-1.82,6.76-2.04,9.97-2.33,2.49-.22,5.81-.57,7.97,.19,7.2,2.51,12.68,20.38,17.71,26.2,5.36,6.2,7.24,5.6,11.38,7.87,3.02,1.66,5.66,4.96,7.5,6.04,2.74,1.61,7.81,2.53,11.69,4.78,4.58,2.64,7.1,4.46,10.37,6.3,3.15,1.77,8.73,3.35,12.58,4.12,6.44,1.3,12.17,20.49,12.17,20.49"/></g></g></svg>