<?xml version="1.0" encoding="UTF-8"?><svg id="Layer_1" xmlns="http://www.w3.org/2000/svg" viewBox="0 0 1000 1000"><defs><style>.cls-1,.cls-2{fill:#fff;}.cls-2{font-family:IBMCourier-Bold, 'IBM Courier';font-size:265.03px;}</style></defs><rect width="1000" height="1000"/><g><g><g><path class="cls-1" d="M68.98,414.07l48.77-3.71v62.81c13.96-9.89,26.77-14.84,38.43-14.84,13.07,0,23.59,4.42,31.54,13.25,7.95,8.84,11.93,20.23,11.93,34.19v54.6h21.47v21.73h-66.79v-21.73h22.26v-53.54c0-7.24-1.68-13.34-5.04-18.29-3.36-4.95-8.31-7.42-14.84-7.42-9.9,0-22.88,6.01-38.96,18.02v61.22h20.14v21.73H72.69v-21.73h22v-125.62l-23.85,1.59-1.85-22.26Z"/><path class="cls-1" d="M250.26,413.01l45.05-2.65v65.2c11.84-9.71,24.82-14.58,38.96-14.58,17.31,0,32.11,6.05,44.39,18.16,12.28,12.1,18.42,26.73,18.42,43.86,0,16.08-5.88,30.39-17.62,42.94-11.75,12.55-26.46,18.82-44.13,18.82-14.67,0-28.01-4.77-40.02-14.31v11.66h-43.46v-21.73h20.41v-125.89l-20.41,1.06-1.59-22.53Zm45.05,109.72c0,10.6,3.84,19.79,11.53,27.56,7.69,7.78,17.09,11.66,28.23,11.66s19.96-3.8,27.03-11.4c7.06-7.59,10.6-16.78,10.6-27.56s-3.67-20.01-11-27.7c-7.33-7.69-16.3-11.53-26.9-11.53s-20.28,3.89-27.96,11.66c-7.69,7.78-11.53,16.88-11.53,27.3Z"/><path class="cls-1" d="M422.79,427.59h63.34c18.02,0,31.45,2.48,40.28,7.42,7.42,4.07,13.43,10.03,18.02,17.89,4.59,7.86,6.89,16.12,6.89,24.78,0,7.78-1.99,15.42-5.96,22.93-3.98,7.51-8.97,12.95-14.97,16.3-6.89,3.89-13.65,6.32-20.27,7.29-6.63,.97-18.15,1.46-34.59,1.46h-9.28v34.72h37.63v21.73h-81.1v-21.73h20.41v-111.05h-20.41v-21.73Zm63.61,21.73h-20.14v54.6h9.54c12.9,0,21.95-.44,27.17-1.32,5.21-.88,9.67-2.29,13.38-4.24,2.47-1.23,4.86-3.84,7.16-7.82,2.29-3.97,3.45-8.52,3.45-13.65s-1.24-9.81-3.71-14.05c-2.48-4.24-5.39-7.24-8.75-9.01-5.48-3-14.84-4.51-28.09-4.51Z"/><path class="cls-1" d="M590.82,462.04h60.96v98.33h44.26v21.73h-112.37v-21.73h45.06v-76.59h-37.9v-21.73Zm32.86-23.06v-34.98h28.09v34.98h-28.09Z"/></g><path class="cls-1" d="M43.98,384.99v227.13H18.01v-227.13h25.97Z"/><path class="cls-1" d="M981.99,384.98v227.13h-25.97v-227.13h25.97Z"/><path class="cls-1" d="M747.01,384.98v227.13h-25.97v-227.13h25.97Z"/></g><rect class="cls-1" x="838.53" y="267.49" width="25.97" height="159.02" transform="translate(504.51 1198.51) rotate(-90)"/><rect class="cls-1" x="838.53" y="573.49" width="25.97" height="159.02" transform="translate(198.51 1504.51) rotate(-90)"/><rect class="cls-1" x="369.52" y="33.47" width="25.97" height="627.05" transform="translate(35.51 729.51) rotate(-90)"/><rect class="cls-1" x="369.52" y="339.47" width="25.97" height="627.05" transform="translate(-270.49 1035.51) rotate(-90)"/><text class="cls-2" transform="translate(772.01 582.1)"><tspan x="0" y="0">A</tspan></text></g></svg>