<?xml version="1.0" encoding="UTF-8"?><svg id="Layer_1" xmlns="http://www.w3.org/2000/svg" viewBox="0 0 1000 1000"><defs><style>.cls-1{stroke:#a01c21;}.cls-1,.cls-2{fill:none;stroke-miterlimit:10;stroke-width:25px;}.cls-3{fill:#191414;}.cls-2{stroke:#07415e;}.cls-4{fill:#1db954;}</style></defs><rect class="cls-3" width="1000" height="1000"/><g><g><path class="cls-4" d="M50.88,278.55h41.14v9.49c10.16-9.01,19.37-13.52,27.62-13.52,9.21,0,17.07,4.51,23.59,13.52,3.45-2.88,6.09-4.99,7.91-6.33,1.82-1.34,4.94-2.88,9.35-4.6,4.41-1.73,8.82-2.59,13.23-2.59,24.36,0,36.54,17.74,36.54,53.23v57.54h13.24v23.59h-38.27v-81.13c0-5.37-.1-9.3-.29-11.8-.19-2.49-.62-5.27-1.29-8.34-.67-3.07-1.92-5.22-3.74-6.47-1.83-1.25-4.27-1.87-7.34-1.87s-6.09,.96-9.06,2.88c-2.98,1.92-4.99,3.5-6.04,4.75-1.06,1.25-3.12,3.7-6.19,7.34v71.06h16.97v23.59h-42.01v-82.29c0-3.83-.1-6.86-.29-9.06-.19-2.2-.62-4.99-1.29-8.34-.67-3.35-1.92-5.85-3.74-7.48-1.83-1.63-4.27-2.45-7.34-2.45-5.57,0-12.66,4.13-21.29,12.37v73.65h19.85v23.59H50.88v-23.59h16.4v-83.15h-16.4v-23.59Z"/><path class="cls-4" d="M338.01,278.55h47.76v23.59h-22.73v93.79c0,21.67-5.42,36.54-16.26,44.6-10.84,8.06-26.42,12.08-46.75,12.08h-29.92v-23.59c28.96,0,46.32-1.06,52.08-3.17,3.07-1.15,5.66-2.64,7.77-4.46,2.11-1.83,3.69-3.6,4.75-5.32,1.05-1.73,1.82-4.13,2.3-7.19,.48-3.07,.76-5.61,.86-7.62,.09-2.01,.14-4.94,.14-8.78-11.51,9.4-24.65,14.1-39.42,14.1-18.03,0-33.33-6.33-45.89-18.99-12.57-12.66-18.85-27.81-18.85-45.46s6.47-33.56,19.42-46.03c12.95-12.47,28.15-18.7,45.6-18.7,14.77,0,27.81,4.51,39.13,13.52v-12.37Zm0,63.87c0-11.7-3.79-21.34-11.36-28.92-7.58-7.58-16.54-11.37-26.9-11.37s-19.52,3.79-27.48,11.37c-7.96,7.58-11.94,17.02-11.94,28.34s3.83,20.57,11.51,28.34c7.67,7.77,16.88,11.65,27.62,11.65s20.33-3.93,27.62-11.8c7.29-7.86,10.93-17.07,10.93-27.62Z"/><path class="cls-4" d="M429.21,278.55h66.17v106.74h48.05v23.59h-121.99v-23.59h48.91v-83.15h-41.14v-23.59Zm35.68-25.03v-37.98h30.5v37.98h-30.5Z"/><path class="cls-4" d="M699.37,274.53l22.44,2.3c-1.15,10.36-1.73,19.95-1.73,28.77,0,8.06,.58,16.5,1.73,25.32l-24.17,3.17c-.96-5.94-1.83-10.4-2.59-13.38-.77-2.97-2.35-6.42-4.75-10.36-2.4-3.93-6.09-6.76-11.08-8.49-4.99-1.73-11.41-2.59-19.28-2.59-9.59,0-17.79,1.68-24.6,5.04-6.81,3.36-11.75,7.58-14.82,12.66-3.07,5.08-5.23,9.83-6.47,14.24-1.25,4.41-1.87,8.54-1.87,12.37,0,11.51,3.79,21.82,11.36,30.93,7.58,9.11,19.03,13.67,34.38,13.67,6.91,0,14.29-1.53,22.15-4.6,7.86-3.07,14.34-6.14,19.42-9.21,5.08-3.07,11.27-7.19,18.56-12.37l13.81,19.56c-27.24,20.91-52.27,31.36-75.09,31.36-20.72,0-37.74-6.62-51.07-19.85-13.33-13.23-20-29.63-20-49.2,0-18.22,6.33-34.33,18.99-48.34,12.66-14,29.73-21,51.21-21,14.77,0,28.38,5.28,40.85,15.82l2.59-15.82Z"/></g><polyline class="cls-2" points="949.12 620.89 889.24 558.89 829.36 620.89 769.47 558.89 709.59 620.89 649.71 558.89 589.82 620.89 529.94 558.89 470.06 620.89 410.18 558.89 350.29 620.89 290.41 558.89 230.53 620.89 170.64 558.89 110.76 620.89 50.88 558.89"/><line class="cls-1" x1="50.88" y1="771.96" x2="949.12" y2="771.96"/></g></svg>