<?xml version="1.0" encoding="UTF-8"?><svg id="Layer_1" xmlns="http://www.w3.org/2000/svg" viewBox="0 0 1000 1000"><defs><style>.cls-1{fill:#dae5dd;}.cls-2{fill:#29485d;}.cls-3{fill:#879186;}.cls-4{fill:#1d2625;}.cls-5{fill:#d55548;}</style></defs><rect class="cls-2" width="1000" height="1000"/><g><g><path class="cls-1" d="M132.28,352.28h17.5c-.58,6.42-.88,12.69-.88,18.81s.44,14,1.31,24.5c.29,.88,.44,2.62,.44,5.25l-17.28,2.41c-.44-3.5-.84-6.23-1.2-8.2-.37-1.97-1.2-4.81-2.52-8.53s-2.95-6.63-4.92-8.75c-1.97-2.11-4.78-4.01-8.42-5.69-3.65-1.67-7.88-2.52-12.69-2.52-9.19,0-16.19,2.19-21,6.56s-7.22,9.26-7.22,14.66c0,3.65,.95,6.67,2.84,9.08,1.89,2.41,4.7,4.23,8.42,5.47,3.72,1.24,6.63,2.08,8.75,2.52,2.11,.44,5.07,.88,8.86,1.31,13.27,1.61,22.02,3.28,26.25,5.03,2.04,.88,4.01,1.9,5.91,3.06,10.35,6.56,15.53,16.04,15.53,28.44,0,11.23-4.45,20.67-13.34,28.33-8.9,7.66-19.76,11.48-32.59,11.48-5.54,0-10.39-.73-14.55-2.19s-7.11-2.92-8.86-4.38c-1.75-1.46-3.79-3.42-6.12-5.91l-1.75,13.12h-17.72c.44-4.38,.66-9.26,.66-14.66,0-10.94-.58-22.6-1.75-35h17.5c1.89,20.13,11.81,30.19,29.75,30.19,7.58,0,14.33-1.71,20.23-5.14,5.91-3.42,8.86-8.57,8.86-15.42,0-6.13-2.26-10.35-6.78-12.69-4.52-2.33-10.87-3.94-19.03-4.81-3.21-.29-5.8-.58-7.77-.88-1.97-.29-4.92-.84-8.86-1.64-3.94-.8-7.22-1.71-9.84-2.73-2.62-1.02-5.62-2.48-8.97-4.38-3.36-1.89-6.05-4.05-8.09-6.45-2.04-2.41-3.76-5.43-5.14-9.08-1.39-3.64-2.08-7.73-2.08-12.25,0-11.23,4.67-20.78,14-28.66,9.33-7.88,19.69-11.81,31.06-11.81s21.14,4.59,29.75,13.78l1.75-12.25Z"/><path class="cls-1" d="M267.69,379.85l17.06,1.75c-.88,7.88-1.31,15.17-1.31,21.88,0,6.12,.44,12.54,1.31,19.25l-18.38,2.41c-.73-4.52-1.39-7.91-1.97-10.17-.58-2.26-1.79-4.88-3.61-7.88-1.83-2.99-4.63-5.14-8.42-6.45-3.79-1.31-8.68-1.97-14.66-1.97-7.29,0-13.53,1.28-18.7,3.83-5.18,2.55-8.93,5.76-11.27,9.62-2.33,3.87-3.97,7.48-4.92,10.83-.95,3.36-1.42,6.49-1.42,9.41,0,8.75,2.88,16.59,8.64,23.52,5.76,6.93,14.47,10.39,26.14,10.39,5.25,0,10.86-1.17,16.84-3.5,5.98-2.33,10.9-4.67,14.77-7,3.86-2.33,8.57-5.47,14.11-9.41l10.5,14.88c-20.71,15.9-39.74,23.84-57.09,23.84-15.75,0-28.69-5.03-38.83-15.09-10.14-10.06-15.2-22.53-15.2-37.41,0-13.85,4.81-26.1,14.44-36.75,9.62-10.64,22.6-15.97,38.94-15.97,11.23,0,21.58,4.01,31.06,12.03l1.97-12.03Z"/><path class="cls-1" d="M403.53,414.85v49.22h18.81v17.94h-37.84v-10.5c-12.4,9.04-24.43,13.56-36.09,13.56s-20.23-3.46-27.45-10.39c-7.22-6.92-10.83-14.84-10.83-23.73,0-3.64,.8-7.4,2.41-11.27,1.6-3.86,4.16-7.73,7.66-11.59,3.5-3.86,8.67-7.03,15.53-9.52,6.85-2.48,14.8-3.72,23.84-3.72,6.12,0,14.44,.58,24.94,1.75,0-2.77-.15-4.92-.44-6.45-.29-1.53-1.02-3.5-2.19-5.91-1.17-2.41-3.32-4.19-6.45-5.36-3.14-1.17-7.26-1.75-12.36-1.75-10.06,0-22.83,3.36-38.28,10.06l-7.44-17.5c18.52-7.58,33.83-11.38,45.94-11.38,13.56,0,23.66,3.17,30.3,9.52,6.63,6.34,9.95,15.35,9.95,27.02Zm-19.03,31.72v-11.38c-11.23-1.6-18.81-2.41-22.75-2.41-5.83,0-10.87,.58-15.09,1.75-4.23,1.17-7.4,2.48-9.52,3.94-2.12,1.46-3.76,3.17-4.92,5.14-1.17,1.97-1.86,3.5-2.08,4.59s-.33,2.08-.33,2.95c0,3.94,1.86,7.44,5.58,10.5s7.98,4.59,12.8,4.59c12.39,0,24.5-6.56,36.31-19.69Z"/><path class="cls-1" d="M446.41,382.91h43.31v16.19c4.08-3.94,7.55-7,10.39-9.19s6.96-4.41,12.36-6.67c5.39-2.26,11.01-3.39,16.84-3.39,5.1,0,9.84,.88,14.22,2.62s7.44,3.36,9.19,4.81c1.75,1.46,3.86,3.43,6.34,5.91l-19.47,14.88c-3.65-6.27-8.31-9.41-14-9.41-1.75,0-3.61,.33-5.58,.98s-3.9,1.5-5.8,2.52c-1.9,1.02-3.83,2.26-5.8,3.72-1.97,1.46-3.76,2.88-5.36,4.27-1.61,1.39-3.25,2.88-4.92,4.48-1.68,1.61-3.03,2.92-4.05,3.94-1.02,1.02-1.97,2.04-2.84,3.06l-1.53,1.53v40.91h40.47v17.94h-85.75v-17.94h26.25v-63.22h-24.28v-17.94Z"/><path class="cls-1" d="M679.38,450.5l8.75,16.84c-20.42,11.81-39.3,17.72-56.66,17.72s-31.21-5.03-41.13-15.09c-9.92-10.06-14.88-22.38-14.88-36.97s4.99-27.27,14.98-37.62c9.99-10.35,23.15-15.53,39.49-15.53s28.91,4.78,38.17,14.33c9.26,9.55,13.89,20.23,13.89,32.05,0,4.96-.22,9.41-.66,13.34h-85.75c.73,3.06,1.57,5.65,2.52,7.77,.95,2.12,2.62,4.85,5.03,8.2,2.41,3.36,6.02,5.98,10.83,7.88,4.81,1.9,10.5,2.84,17.06,2.84,14.44,0,30.55-5.25,48.34-15.75Zm-82.47-28.88h64.97c-4.08-15.31-14.66-22.97-31.72-22.97s-27.56,7.66-33.25,22.97Z"/><path class="cls-1" d="M752.66,344.84l52.28-4.59v123.81h17.72v17.94h-36.75v-9.19c-8.9,7.58-19.54,11.38-31.94,11.38-14.29,0-26.36-5.07-36.2-15.2-9.84-10.13-14.77-22.13-14.77-35.99,0-14.73,5.1-26.91,15.31-36.53,10.21-9.62,21.95-14.44,35.22-14.44,11.96,0,22.75,3.79,32.38,11.38v-32.59l-35.22,2.63,1.97-18.59Zm32.81,88.38c0-8.02-2.77-15.42-8.31-22.2-5.54-6.78-13.2-10.17-22.97-10.17-8.46,0-15.75,2.95-21.88,8.86-6.12,5.91-9.19,13.6-9.19,23.08s3.03,17.1,9.08,23.3c6.05,6.2,13.38,9.3,21.99,9.3s15.78-3.06,21.98-9.19c6.2-6.12,9.3-13.78,9.3-22.97Z"/><path class="cls-1" d="M827.69,382.91h47.91v17.94h-11.81l26.69,51.19,29.31-51.19h-11.38v-17.94h47.03v17.94h-13.78l-54.91,95.59h16.41v17.94h-72.19v-17.94h33.91l14.44-24.72-37.19-70.88h-14.44v-17.94Z"/></g><g><g><g><circle class="cls-3" cx="750.58" cy="594.45" r="65.3"/><path class="cls-1" d="M704.4,640.62c-25.5-25.5-25.5-66.84,0-92.34,25.5-25.5,66.84-25.5,92.34,0"/><g><rect class="cls-4" x="777.43" y="550.75" width="4.4" height="4.4" transform="translate(-162.65 713.24) rotate(-45)"/><rect class="cls-4" x="764.98" y="563.2" width="4.4" height="4.4" transform="translate(-175.1 708.08) rotate(-45)"/><rect class="cls-4" x="773.28" y="554.9" width="4.4" height="4.4" transform="translate(-166.8 711.52) rotate(-45)"/><rect class="cls-4" x="711.02" y="617.15" width="4.4" height="4.4" transform="translate(-229.05 685.73) rotate(-45)"/><rect class="cls-4" x="769.13" y="559.05" width="4.4" height="4.4" transform="translate(-170.95 709.8) rotate(-45)"/><path class="cls-4" d="M703.89,623.5l-3.11-3.11-.26,.26c.7,1.34,1.47,2.65,2.29,3.94l1.09-1.09Z"/><rect class="cls-4" x="731.77" y="588.1" width="4.4" height="4.4" transform="translate(-202.43 691.89) rotate(-45)"/><rect class="cls-4" x="727.62" y="592.25" width="4.4" height="4.4" transform="translate(-206.58 690.17) rotate(-45)"/><rect class="cls-4" x="731.77" y="613" width="4.4" height="4.4" transform="translate(-220.04 699.19) rotate(-45)"/><rect class="cls-4" x="723.47" y="596.4" width="4.4" height="4.4" transform="translate(-210.73 688.46) rotate(-45)"/><rect class="cls-4" x="748.37" y="579.8" width="4.4" height="4.4" transform="translate(-191.7 701.2) rotate(-45)"/><rect class="cls-4" x="752.52" y="575.65" width="4.4" height="4.4" transform="translate(-187.55 702.92) rotate(-45)"/><rect class="cls-4" x="744.22" y="583.95" width="4.4" height="4.4" transform="translate(-195.85 699.48) rotate(-45)"/><rect class="cls-4" x="740.07" y="588.1" width="4.4" height="4.4" transform="translate(-200 697.76) rotate(-45)"/><rect class="cls-4" x="715.17" y="613" width="4.4" height="4.4" transform="translate(-224.9 687.45) rotate(-45)"/><rect class="cls-4" x="760.83" y="567.35" width="4.4" height="4.4" transform="translate(-179.25 706.36) rotate(-45)"/><rect class="cls-4" x="735.92" y="592.25" width="4.4" height="4.4" transform="translate(-204.15 696.04) rotate(-45)"/><rect class="cls-4" x="719.32" y="608.85" width="4.4" height="4.4" transform="translate(-220.75 689.17) rotate(-45)"/><rect class="cls-4" x="756.68" y="571.5" width="4.4" height="4.4" transform="translate(-183.4 704.64) rotate(-45)"/><rect class="cls-4" x="706.87" y="621.3" width="4.4" height="4.4" transform="translate(-233.2 684.01) rotate(-45)"/><rect class="cls-4" x="773.28" y="546.6" width="4.4" height="4.4" transform="translate(-160.93 709.08) rotate(-45)"/><path class="cls-4" d="M703.89,615.2l-3.11-3.11-2.85,2.85c.11,.29,.22,.58,.33,.87l2.51,2.51,3.11-3.11Z"/><rect class="cls-4" x="769.13" y="550.75" width="4.4" height="4.4" transform="translate(-165.08 707.37) rotate(-45)"/><rect class="cls-4" x="764.98" y="554.9" width="4.4" height="4.4" transform="translate(-169.23 705.65) rotate(-45)"/><rect class="cls-4" x="760.83" y="559.05" width="4.4" height="4.4" transform="translate(-173.38 703.93) rotate(-45)"/><rect class="cls-4" x="723.47" y="588.1" width="4.4" height="4.4" transform="translate(-204.86 686.02) rotate(-45)"/><rect class="cls-4" x="727.62" y="583.95" width="4.4" height="4.4" transform="translate(-200.71 687.74) rotate(-45)"/><rect class="cls-4" x="719.32" y="592.25" width="4.4" height="4.4" transform="translate(-209.01 684.31) rotate(-45)"/><rect class="cls-4" x="715.17" y="596.4" width="4.4" height="4.4" transform="translate(-213.16 682.59) rotate(-45)"/><rect class="cls-4" x="711.02" y="608.85" width="4.4" height="4.4" transform="translate(-223.18 683.3) rotate(-45)"/><rect class="cls-4" x="756.68" y="563.2" width="4.4" height="4.4" transform="translate(-177.53 702.21) rotate(-45)"/><rect class="cls-4" x="748.37" y="571.5" width="4.4" height="4.4" transform="translate(-185.83 698.77) rotate(-45)"/><rect class="cls-4" x="744.22" y="575.65" width="4.4" height="4.4" transform="translate(-189.98 697.05) rotate(-45)"/><rect class="cls-4" x="740.07" y="579.8" width="4.4" height="4.4" transform="translate(-194.13 695.33) rotate(-45)"/><rect class="cls-4" x="702.72" y="617.15" width="4.4" height="4.4" transform="translate(-231.48 679.86) rotate(-45)"/><rect class="cls-4" x="735.92" y="583.95" width="4.4" height="4.4" transform="translate(-198.28 693.61) rotate(-45)"/><rect class="cls-4" x="706.87" y="613" width="4.4" height="4.4" transform="translate(-227.33 681.58) rotate(-45)"/><rect class="cls-4" x="752.52" y="567.35" width="4.4" height="4.4" transform="translate(-181.68 700.49) rotate(-45)"/><rect class="cls-4" x="715.17" y="604.7" width="4.4" height="4.4" transform="translate(-219.03 685.02) rotate(-45)"/><rect class="cls-4" x="781.58" y="554.9" width="4.4" height="4.4" transform="translate(-164.37 717.39) rotate(-45)"/><rect class="cls-4" x="719.32" y="625.45" width="4.4" height="4.4" transform="translate(-232.49 694.03) rotate(-45)"/><rect class="cls-4" x="773.28" y="571.5" width="4.4" height="4.4" transform="translate(-178.54 716.38) rotate(-45)"/><rect class="cls-4" x="723.47" y="621.3" width="4.4" height="4.4" transform="translate(-228.34 695.75) rotate(-45)"/><rect class="cls-4" x="777.43" y="567.35" width="4.4" height="4.4" transform="translate(-174.39 718.1) rotate(-45)"/><rect class="cls-4" x="715.17" y="629.6" width="4.4" height="4.4" transform="translate(-236.64 692.31) rotate(-45)"/><rect class="cls-4" x="781.58" y="563.2" width="4.4" height="4.4" transform="translate(-170.23 719.82) rotate(-45)"/><rect class="cls-4" x="727.62" y="608.85" width="4.4" height="4.4" transform="translate(-218.32 695.04) rotate(-45)"/><path class="cls-4" d="M712.19,631.8l-3.11-3.11-1.9,1.9c.93,1.12,1.92,2.21,2.95,3.27l2.06-2.06Z"/><rect class="cls-4" x="785.73" y="559.05" width="4.4" height="4.4" transform="translate(-166.08 721.54) rotate(-45)"/><rect class="cls-4" x="731.77" y="596.4" width="4.4" height="4.4" transform="translate(-208.3 694.33) rotate(-45)"/><rect class="cls-4" x="735.92" y="608.85" width="4.4" height="4.4" transform="translate(-215.89 700.91) rotate(-45)"/><rect class="cls-4" x="748.37" y="596.4" width="4.4" height="4.4" transform="translate(-203.44 706.06) rotate(-45)"/><rect class="cls-4" x="740.07" y="604.7" width="4.4" height="4.4" transform="translate(-211.74 702.63) rotate(-45)"/><rect class="cls-4" x="764.98" y="579.8" width="4.4" height="4.4" transform="translate(-186.84 712.94) rotate(-45)"/><rect class="cls-4" x="731.77" y="604.7" width="4.4" height="4.4" transform="translate(-214.17 696.76) rotate(-45)"/><rect class="cls-4" x="744.22" y="600.55" width="4.4" height="4.4" transform="translate(-207.59 704.34) rotate(-45)"/><rect class="cls-4" x="760.83" y="583.95" width="4.4" height="4.4" transform="translate(-190.99 711.22) rotate(-45)"/><rect class="cls-4" x="769.13" y="575.65" width="4.4" height="4.4" transform="translate(-182.69 714.66) rotate(-45)"/><rect class="cls-4" x="752.52" y="592.25" width="4.4" height="4.4" transform="translate(-199.29 707.78) rotate(-45)"/><rect class="cls-4" x="756.68" y="588.1" width="4.4" height="4.4" transform="translate(-195.14 709.5) rotate(-45)"/><rect class="cls-4" x="727.62" y="617.15" width="4.4" height="4.4" transform="translate(-224.19 697.47) rotate(-45)"/><rect class="cls-4" x="731.77" y="579.8" width="4.4" height="4.4" transform="translate(-196.56 689.46) rotate(-45)"/><rect class="cls-4" x="773.28" y="563.2" width="4.4" height="4.4" transform="translate(-172.67 713.95) rotate(-45)"/><rect class="cls-4" x="769.13" y="567.35" width="4.4" height="4.4" transform="translate(-176.82 712.23) rotate(-45)"/><rect class="cls-4" x="715.17" y="621.3" width="4.4" height="4.4" transform="translate(-230.77 689.88) rotate(-45)"/><path class="cls-4" d="M708.04,627.65l-3.11-3.11-1.31,1.31c.82,1.23,1.7,2.42,2.63,3.6l1.79-1.79Z"/><rect class="cls-4" x="727.62" y="600.55" width="4.4" height="4.4" transform="translate(-212.45 692.61) rotate(-45)"/><rect class="cls-4" x="723.47" y="604.7" width="4.4" height="4.4" transform="translate(-216.6 690.89) rotate(-45)"/><rect class="cls-4" x="777.43" y="559.05" width="4.4" height="4.4" transform="translate(-168.52 715.67) rotate(-45)"/><rect class="cls-4" x="711.02" y="625.45" width="4.4" height="4.4" transform="translate(-234.92 688.16) rotate(-45)"/><rect class="cls-4" x="744.22" y="592.25" width="4.4" height="4.4" transform="translate(-201.72 701.91) rotate(-45)"/><rect class="cls-4" x="735.92" y="600.55" width="4.4" height="4.4" transform="translate(-210.02 698.48) rotate(-45)"/><rect class="cls-4" x="748.37" y="588.1" width="4.4" height="4.4" transform="translate(-197.57 703.63) rotate(-45)"/><rect class="cls-4" x="752.52" y="583.95" width="4.4" height="4.4" transform="translate(-193.42 705.35) rotate(-45)"/><rect class="cls-4" x="719.32" y="617.15" width="4.4" height="4.4" transform="translate(-226.62 691.6) rotate(-45)"/><rect class="cls-4" x="740.07" y="596.4" width="4.4" height="4.4" transform="translate(-205.87 700.19) rotate(-45)"/><rect class="cls-4" x="723.47" y="613" width="4.4" height="4.4" transform="translate(-222.47 693.32) rotate(-45)"/><rect class="cls-4" x="760.83" y="575.65" width="4.4" height="4.4" transform="translate(-185.12 708.79) rotate(-45)"/><rect class="cls-4" x="756.68" y="579.8" width="4.4" height="4.4" transform="translate(-189.27 707.07) rotate(-45)"/><rect class="cls-4" x="764.98" y="571.5" width="4.4" height="4.4" transform="translate(-180.97 710.51) rotate(-45)"/><rect class="cls-4" x="719.32" y="600.55" width="4.4" height="4.4" transform="translate(-214.88 686.74) rotate(-45)"/><rect class="cls-4" x="727.62" y="559.05" width="4.4" height="4.4" transform="translate(-183.1 680.45) rotate(-45)"/><rect class="cls-4" x="731.77" y="554.9" width="4.4" height="4.4" transform="translate(-178.95 682.17) rotate(-45)"/><rect class="cls-4" x="723.47" y="563.2" width="4.4" height="4.4" transform="translate(-187.25 678.73) rotate(-45)"/><rect class="cls-4" x="715.17" y="571.5" width="4.4" height="4.4" transform="translate(-195.55 675.29) rotate(-45)"/><rect class="cls-4" x="740.07" y="546.6" width="4.4" height="4.4" transform="translate(-170.65 685.61) rotate(-45)"/><rect class="cls-4" x="719.32" y="567.35" width="4.4" height="4.4" transform="translate(-191.4 677.01) rotate(-45)"/><rect class="cls-4" x="735.92" y="550.75" width="4.4" height="4.4" transform="translate(-174.8 683.89) rotate(-45)"/><rect class="cls-4" x="698.57" y="579.8" width="4.4" height="4.4" transform="translate(-206.29 665.99) rotate(-45)"/><rect class="cls-4" x="702.72" y="575.65" width="4.4" height="4.4" transform="translate(-202.14 667.7) rotate(-45)"/><rect class="cls-4" x="706.87" y="571.5" width="4.4" height="4.4" transform="translate(-197.98 669.42) rotate(-45)"/><path class="cls-4" d="M694.34,589.06c-.09,.89-.15,1.79-.19,2.68l1.44-1.44-1.24-1.24Z"/><path class="cls-4" d="M694.15,597.17c.04,.89,.11,1.79,.19,2.68l1.24-1.24-1.44-1.44Z"/><rect class="cls-4" x="711.02" y="575.65" width="4.4" height="4.4" transform="translate(-199.7 673.57) rotate(-45)"/><path class="cls-4" d="M694.1,595.04l2.53,2.53,3.11-3.11-3.11-3.11-2.53,2.53c0,.39,0,.78,0,1.18Z"/><rect class="cls-4" x="752.52" y="542.45" width="4.4" height="4.4" transform="translate(-164.07 693.2) rotate(-45)"/><rect class="cls-4" x="748.37" y="546.6" width="4.4" height="4.4" transform="translate(-168.22 691.48) rotate(-45)"/><rect class="cls-4" x="706.87" y="579.8" width="4.4" height="4.4" transform="translate(-203.85 671.85) rotate(-45)"/><rect class="cls-4" x="702.72" y="583.95" width="4.4" height="4.4" transform="translate(-208 670.14) rotate(-45)"/><rect class="cls-4" x="698.57" y="588.1" width="4.4" height="4.4" transform="translate(-212.15 668.42) rotate(-45)"/><rect class="cls-4" x="744.22" y="542.45" width="4.4" height="4.4" transform="translate(-166.5 687.34) rotate(-45)"/><rect class="cls-4" x="711.02" y="567.35" width="4.4" height="4.4" transform="translate(-193.83 671.14) rotate(-45)"/><rect class="cls-4" x="715.17" y="554.9" width="4.4" height="4.4" transform="translate(-183.81 670.43) rotate(-45)"/><rect class="cls-4" x="723.47" y="546.6" width="4.4" height="4.4" transform="translate(-175.51 673.87) rotate(-45)"/><rect class="cls-4" x="702.72" y="592.25" width="4.4" height="4.4" transform="translate(-213.87 672.57) rotate(-45)"/><rect class="cls-4" x="711.02" y="559.05" width="4.4" height="4.4" transform="translate(-187.97 668.71) rotate(-45)"/><path class="cls-4" d="M695.5,581.92c-.02,.07-.03,.15-.05,.22l.13-.13-.09-.09Z"/><path class="cls-4" d="M729.82,641.14l-3.11,3.11,2.51,2.51c.29,.12,.58,.22,.87,.33l2.85-2.85-3.11-3.11Z"/><rect class="cls-4" x="706.87" y="563.2" width="4.4" height="4.4" transform="translate(-192.12 666.99) rotate(-45)"/><path class="cls-4" d="M771.33,547.76l3.11-3.11-2.51-2.51c-.29-.12-.58-.22-.87-.33l-2.85,2.85,3.11,3.11Z"/><path class="cls-4" d="M699.73,577.85l-2.38-2.38c-.56,1.57-1.04,3.16-1.46,4.77l.72,.72,3.11-3.11Z"/><rect class="cls-4" x="719.32" y="550.75" width="4.4" height="4.4" transform="translate(-179.66 672.15) rotate(-45)"/><rect class="cls-4" x="719.32" y="559.05" width="4.4" height="4.4" transform="translate(-185.53 674.58) rotate(-45)"/><rect class="cls-4" x="727.62" y="550.75" width="4.4" height="4.4" transform="translate(-177.23 678.02) rotate(-45)"/><rect class="cls-4" x="723.47" y="554.9" width="4.4" height="4.4" transform="translate(-181.38 676.3) rotate(-45)"/><rect class="cls-4" x="715.17" y="563.2" width="4.4" height="4.4" transform="translate(-189.68 672.86) rotate(-45)"/><rect class="cls-4" x="735.92" y="542.45" width="4.4" height="4.4" transform="translate(-168.93 681.46) rotate(-45)"/><path class="cls-4" d="M696.62,589.26l3.11-3.11-3.11-3.11-1.68,1.68c-.14,.82-.27,1.65-.38,2.48l2.06,2.06Z"/><rect class="cls-4" x="702.72" y="567.35" width="4.4" height="4.4" transform="translate(-196.27 665.27) rotate(-45)"/><path class="cls-4" d="M737.09,540.5l-.72-.72c-1.61,.42-3.2,.9-4.77,1.46l2.38,2.38,3.11-3.11Z"/><rect class="cls-4" x="731.77" y="546.6" width="4.4" height="4.4" transform="translate(-173.08 679.74) rotate(-45)"/><rect class="cls-4" x="727.62" y="575.65" width="4.4" height="4.4" transform="translate(-194.84 685.31) rotate(-45)"/><rect class="cls-4" x="711.02" y="592.25" width="4.4" height="4.4" transform="translate(-211.44 678.44) rotate(-45)"/><rect class="cls-4" x="715.17" y="588.1" width="4.4" height="4.4" transform="translate(-207.29 680.16) rotate(-45)"/><rect class="cls-4" x="719.32" y="583.95" width="4.4" height="4.4" transform="translate(-203.14 681.87) rotate(-45)"/><rect class="cls-4" x="760.83" y="550.75" width="4.4" height="4.4" transform="translate(-167.51 701.5) rotate(-45)"/><path class="cls-4" d="M696.62,607.94l-.72,.72c.42,1.61,.9,3.2,1.46,4.77l2.38-2.38-3.11-3.11Z"/><rect class="cls-4" x="731.77" y="571.5" width="4.4" height="4.4" transform="translate(-190.69 687.03) rotate(-45)"/><rect class="cls-4" x="723.47" y="579.8" width="4.4" height="4.4" transform="translate(-198.99 683.59) rotate(-45)"/><rect class="cls-4" x="735.92" y="567.35" width="4.4" height="4.4" transform="translate(-186.54 688.75) rotate(-45)"/><rect class="cls-4" x="735.92" y="575.65" width="4.4" height="4.4" transform="translate(-192.41 691.18) rotate(-45)"/><rect class="cls-4" x="740.07" y="563.2" width="4.4" height="4.4" transform="translate(-182.39 690.47) rotate(-45)"/><rect class="cls-4" x="744.22" y="567.35" width="4.4" height="4.4" transform="translate(-184.11 694.62) rotate(-45)"/><rect class="cls-4" x="698.57" y="596.4" width="4.4" height="4.4" transform="translate(-218.02 670.85) rotate(-45)"/><rect class="cls-4" x="752.52" y="559.05" width="4.4" height="4.4" transform="translate(-175.81 698.06) rotate(-45)"/><rect class="cls-4" x="764.98" y="546.6" width="4.4" height="4.4" transform="translate(-163.36 703.22) rotate(-45)"/><rect class="cls-4" x="740.07" y="571.5" width="4.4" height="4.4" transform="translate(-188.26 692.9) rotate(-45)"/><rect class="cls-4" x="756.68" y="554.9" width="4.4" height="4.4" transform="translate(-171.66 699.78) rotate(-45)"/><rect class="cls-4" x="706.87" y="604.7" width="4.4" height="4.4" transform="translate(-221.46 679.15) rotate(-45)"/><rect class="cls-4" x="711.02" y="600.55" width="4.4" height="4.4" transform="translate(-217.31 680.87) rotate(-45)"/><rect class="cls-4" x="702.72" y="608.85" width="4.4" height="4.4" transform="translate(-225.61 677.43) rotate(-45)"/><rect class="cls-4" x="748.37" y="563.2" width="4.4" height="4.4" transform="translate(-179.96 696.34) rotate(-45)"/><rect class="cls-4" x="723.47" y="571.5" width="4.4" height="4.4" transform="translate(-193.12 681.16) rotate(-45)"/><rect class="cls-4" x="719.32" y="575.65" width="4.4" height="4.4" transform="translate(-197.27 679.44) rotate(-45)"/><rect class="cls-4" x="711.02" y="583.95" width="4.4" height="4.4" transform="translate(-205.57 676) rotate(-45)"/><rect class="cls-4" x="748.37" y="554.9" width="4.4" height="4.4" transform="translate(-174.09 693.91) rotate(-45)"/><rect class="cls-4" x="715.17" y="579.8" width="4.4" height="4.4" transform="translate(-201.42 677.72) rotate(-45)"/><rect class="cls-4" x="731.77" y="563.2" width="4.4" height="4.4" transform="translate(-184.82 684.6) rotate(-45)"/><rect class="cls-4" x="740.07" y="554.9" width="4.4" height="4.4" transform="translate(-176.52 688.04) rotate(-45)"/><rect class="cls-4" x="744.22" y="550.75" width="4.4" height="4.4" transform="translate(-172.37 689.76) rotate(-45)"/><rect class="cls-4" x="735.92" y="559.05" width="4.4" height="4.4" transform="translate(-180.67 686.32) rotate(-45)"/><rect class="cls-4" x="727.62" y="567.35" width="4.4" height="4.4" transform="translate(-188.97 682.88) rotate(-45)"/><rect class="cls-4" x="752.52" y="550.75" width="4.4" height="4.4" transform="translate(-169.94 695.63) rotate(-45)"/><rect class="cls-4" x="706.87" y="596.4" width="4.4" height="4.4" transform="translate(-215.59 676.72) rotate(-45)"/><rect class="cls-4" x="698.57" y="604.7" width="4.4" height="4.4" transform="translate(-223.89 673.28) rotate(-45)"/><rect class="cls-4" x="744.22" y="559.05" width="4.4" height="4.4" transform="translate(-178.24 692.19) rotate(-45)"/><path class="cls-4" d="M695.45,606.77c.02,.07,.03,.15,.05,.22l.09-.09-.13-.13Z"/><path class="cls-4" d="M696.62,605.87l3.11-3.11-3.11-3.11-2.06,2.06c.11,.83,.23,1.66,.38,2.48l1.68,1.68Z"/><rect class="cls-4" x="706.87" y="588.1" width="4.4" height="4.4" transform="translate(-209.72 674.29) rotate(-45)"/><rect class="cls-4" x="756.68" y="546.6" width="4.4" height="4.4" transform="translate(-165.79 697.35) rotate(-45)"/><rect class="cls-4" x="760.83" y="542.45" width="4.4" height="4.4" transform="translate(-161.64 699.07) rotate(-45)"/><rect class="cls-4" x="702.72" y="600.55" width="4.4" height="4.4" transform="translate(-219.74 675) rotate(-45)"/><rect class="cls-4" x="781.58" y="621.3" width="4.4" height="4.4" transform="translate(-211.32 736.83) rotate(-45)"/><rect class="cls-4" x="789.88" y="613" width="4.4" height="4.4" transform="translate(-203.02 740.27) rotate(-45)"/><rect class="cls-4" x="785.73" y="617.15" width="4.4" height="4.4" transform="translate(-207.17 738.55) rotate(-45)"/><rect class="cls-4" x="777.43" y="633.75" width="4.4" height="4.4" transform="translate(-221.34 737.55) rotate(-45)"/><rect class="cls-4" x="773.28" y="629.6" width="4.4" height="4.4" transform="translate(-219.62 733.4) rotate(-45)"/><rect class="cls-4" x="777.43" y="625.45" width="4.4" height="4.4" transform="translate(-215.47 735.12) rotate(-45)"/><path class="cls-4" d="M750.58,645.29l-3.11,3.11,2.53,2.53c.39,0,.78,0,1.18,0l2.53-2.53-3.11-3.11Z"/><path class="cls-4" d="M753.29,650.88c.89-.04,1.79-.11,2.68-.19l-1.24-1.24-1.44,1.44Z"/><rect class="cls-4" x="794.03" y="608.85" width="4.4" height="4.4" transform="translate(-198.87 741.99) rotate(-45)"/><rect class="cls-4" x="798.18" y="604.7" width="4.4" height="4.4" transform="translate(-194.72 743.71) rotate(-45)"/><path class="cls-4" d="M758.88,645.29l-3.11,3.11,2.06,2.06c.83-.11,1.66-.23,2.48-.38l1.68-1.68-3.11-3.11Z"/><rect class="cls-4" x="789.88" y="621.3" width="4.4" height="4.4" transform="translate(-208.89 742.7) rotate(-45)"/><rect class="cls-4" x="785.73" y="625.45" width="4.4" height="4.4" transform="translate(-213.04 740.99) rotate(-45)"/><rect class="cls-4" x="794.03" y="617.15" width="4.4" height="4.4" transform="translate(-204.74 744.42) rotate(-45)"/><rect class="cls-4" x="781.58" y="629.6" width="4.4" height="4.4" transform="translate(-217.19 739.27) rotate(-45)"/><path class="cls-4" d="M764.06,648.41l.72,.72c1.61-.42,3.2-.9,4.77-1.46l-2.38-2.38-3.11,3.11Z"/><path class="cls-4" d="M763.03,649.44l-.13,.13c.07-.02,.15-.03,.22-.05l-.09-.09Z"/><rect class="cls-4" x="760.83" y="642.05" width="4.4" height="4.4" transform="translate(-232.07 728.24) rotate(-45)"/><rect class="cls-4" x="764.98" y="637.9" width="4.4" height="4.4" transform="translate(-227.92 729.96) rotate(-45)"/><path class="cls-4" d="M771.33,641.14l-3.11,3.11,2.85,2.85c.29-.11,.58-.22,.87-.33l2.51-2.51-3.11-3.11Z"/><rect class="cls-4" x="769.13" y="633.75" width="4.4" height="4.4" transform="translate(-223.77 731.68) rotate(-45)"/><path class="cls-4" d="M738.12,649.44l-.09,.09c.07,.02,.15,.03,.22,.05l-.13-.13Z"/><path class="cls-4" d="M742.28,645.29l-3.11,3.11,1.68,1.68c.82,.14,1.65,.27,2.48,.38l2.06-2.06-3.11-3.11Z"/><rect class="cls-4" x="789.88" y="604.7" width="4.4" height="4.4" transform="translate(-197.15 737.84) rotate(-45)"/><rect class="cls-4" x="794.03" y="600.55" width="4.4" height="4.4" transform="translate(-193 739.56) rotate(-45)"/><rect class="cls-4" x="756.68" y="629.6" width="4.4" height="4.4" transform="translate(-224.48 721.66) rotate(-45)"/><rect class="cls-4" x="764.98" y="621.3" width="4.4" height="4.4" transform="translate(-216.18 725.1) rotate(-45)"/><rect class="cls-4" x="760.83" y="625.45" width="4.4" height="4.4" transform="translate(-220.33 723.38) rotate(-45)"/><rect class="cls-4" x="785.73" y="608.85" width="4.4" height="4.4" transform="translate(-201.3 736.12) rotate(-45)"/><rect class="cls-4" x="752.52" y="633.75" width="4.4" height="4.4" transform="translate(-228.63 719.94) rotate(-45)"/><rect class="cls-4" x="777.43" y="617.15" width="4.4" height="4.4" transform="translate(-209.6 732.68) rotate(-45)"/><rect class="cls-4" x="756.68" y="637.9" width="4.4" height="4.4" transform="translate(-230.35 724.09) rotate(-45)"/><rect class="cls-4" x="752.52" y="642.05" width="4.4" height="4.4" transform="translate(-234.5 722.37) rotate(-45)"/><rect class="cls-4" x="760.83" y="633.75" width="4.4" height="4.4" transform="translate(-226.2 725.81) rotate(-45)"/><rect class="cls-4" x="798.18" y="596.4" width="4.4" height="4.4" transform="translate(-188.85 741.29) rotate(-45)"/><rect class="cls-4" x="781.58" y="613" width="4.4" height="4.4" transform="translate(-205.45 734.4) rotate(-45)"/><rect class="cls-4" x="773.28" y="621.3" width="4.4" height="4.4" transform="translate(-213.75 730.97) rotate(-45)"/><rect class="cls-4" x="764.98" y="629.6" width="4.4" height="4.4" transform="translate(-222.05 727.53) rotate(-45)"/><path class="cls-4" d="M746.43,649.44l-1.24,1.24c.89,.08,1.79,.15,2.68,.19l-1.44-1.44Z"/><rect class="cls-4" x="769.13" y="625.45" width="4.4" height="4.4" transform="translate(-217.9 729.25) rotate(-45)"/><path class="cls-4" d="M787.93,632.84l-3.11,3.11,1.9,1.9c1.12-.93,2.21-1.92,3.27-2.95l-2.06-2.06Z"/><path class="cls-4" d="M742.28,543.61l3.11-3.11-2.06-2.06c-.83,.11-1.66,.23-2.48,.38l-1.68,1.68,3.11,3.11Z"/><path class="cls-4" d="M788.97,557.1l3.11,3.11,1.9-1.9c-.93-1.12-1.92-2.21-2.95-3.27l-2.06,2.06Z"/><path class="cls-4" d="M754.73,539.46l1.24-1.24c-.89-.08-1.79-.15-2.68-.19l1.44,1.44Z"/><path class="cls-4" d="M750.58,543.61l3.11-3.11-2.53-2.53c-.39,0-.78,0-1.18,0l-2.53,2.53,3.11,3.11Z"/><path class="cls-4" d="M747.86,538.02c-.89,.04-1.79,.11-2.68,.19l1.24,1.24,1.44-1.44Z"/><rect class="cls-4" x="773.28" y="637.9" width="4.4" height="4.4" transform="translate(-225.49 735.83) rotate(-45)"/><path class="cls-4" d="M784.82,552.95l3.11,3.11,2.06-2.06c-1.06-1.03-2.15-2.02-3.27-2.95l-1.9,1.9Z"/><path class="cls-4" d="M767.18,543.61l2.38-2.38c-1.57-.56-3.16-1.04-4.77-1.46l-.72,.72,3.11,3.11Z"/><path class="cls-4" d="M780.67,548.8l3.11,3.11,1.79-1.79c-1.17-.93-2.37-1.81-3.6-2.63l-1.31,1.31Z"/><path class="cls-4" d="M776.51,544.65l3.11,3.11,1.09-1.09c-1.29-.82-2.6-1.59-3.94-2.29l-.26,.26Z"/><path class="cls-4" d="M763.03,539.46l.09-.09c-.07-.02-.15-.03-.22-.05l.13,.13Z"/><path class="cls-4" d="M700.77,568.51l3.11-3.11-1.09-1.09c-.82,1.29-1.59,2.6-2.29,3.94l.26,.26Z"/><path class="cls-4" d="M738.12,539.46l.13-.13c-.07,.02-.15,.03-.22,.05l.09,.09Z"/><path class="cls-4" d="M700.77,576.81l3.11-3.11-3.11-3.11-2.51,2.51c-.12,.29-.22,.58-.33,.87l2.85,2.85Z"/><path class="cls-4" d="M709.07,560.21l3.11-3.11-2.06-2.06c-1.03,1.06-2.02,2.15-2.95,3.27l1.9,1.9Z"/><path class="cls-4" d="M704.92,564.36l3.11-3.11-1.79-1.79c-.93,1.17-1.81,2.37-2.63,3.6l1.31,1.31Z"/><path class="cls-4" d="M721.52,547.76l3.11-3.11-.26-.26c-1.34,.7-2.65,1.47-3.94,2.29l1.09,1.09Z"/><path class="cls-4" d="M713.22,556.06l3.11-3.11-1.9-1.9c-1.12,.93-2.21,1.92-3.27,2.95l2.06,2.06Z"/><path class="cls-4" d="M729.82,547.76l3.11-3.11-2.85-2.85c-.29,.11-.58,.22-.87,.33l-2.51,2.51,3.11,3.11Z"/><path class="cls-4" d="M717.37,551.91l3.11-3.11-1.31-1.31c-1.23,.82-2.42,1.7-3.6,2.63l1.79,1.79Z"/><path class="cls-4" d="M758.88,543.61l3.11-3.11-1.68-1.68c-.82-.14-1.65-.27-2.48-.38l-2.06,2.06,3.11,3.11Z"/><path class="cls-4" d="M800.38,620.39l-3.11,3.11,1.09,1.09c.82-1.29,1.59-2.6,2.29-3.94l-.26-.26Z"/><path class="cls-4" d="M800.38,612.09l-3.11,3.11,3.11,3.11,2.51-2.51c.12-.29,.22-.58,.33-.87l-2.85-2.85Z"/><path class="cls-4" d="M796.23,624.54l-3.11,3.11,1.79,1.79c.93-1.17,1.81-2.37,2.63-3.6l-1.31-1.31Z"/><path class="cls-4" d="M801.42,611.05l2.38,2.38c.56-1.57,1.04-3.16,1.46-4.77l-.72-.72-3.11,3.11Z"/><path class="cls-4" d="M779.63,641.14l-3.11,3.11,.26,.26c1.34-.7,2.65-1.47,3.94-2.29l-1.09-1.09Z"/><path class="cls-4" d="M783.78,636.99l-3.11,3.11,1.31,1.31c1.23-.82,2.42-1.7,3.6-2.63l-1.79-1.79Z"/><path class="cls-4" d="M792.08,628.69l-3.11,3.11,2.06,2.06c1.03-1.06,2.02-2.15,2.95-3.27l-1.9-1.9Z"/><path class="cls-4" d="M805.65,606.99c.02-.07,.03-.15,.05-.22l-.13,.13,.09,.09Z"/><rect class="cls-4" x="769.13" y="617.15" width="4.4" height="4.4" transform="translate(-212.03 726.82) rotate(-45)"/><path class="cls-4" d="M807.05,593.86l-2.53-2.53-3.11,3.11,3.11,3.11,2.53-2.53c0-.39,0-.78,0-1.18Z"/><path class="cls-4" d="M805.7,582.13c-.02-.07-.03-.15-.05-.22l-.09,.09,.13,.13Z"/><path class="cls-4" d="M797.27,573.7l3.11,3.11,2.85-2.85c-.11-.29-.22-.58-.33-.87l-2.51-2.51-3.11,3.11Z"/><path class="cls-4" d="M804.53,599.64l-3.11,3.11,3.11,3.11,1.68-1.68c.14-.82,.27-1.65,.38-2.48l-2.06-2.06Z"/><path class="cls-4" d="M797.27,565.4l3.11,3.11,.26-.26c-.7-1.34-1.47-2.65-2.29-3.94l-1.09,1.09Z"/><path class="cls-4" d="M804.53,580.96l.72-.72c-.42-1.61-.9-3.2-1.46-4.77l-2.38,2.38,3.11,3.11Z"/><path class="cls-4" d="M793.12,561.25l3.11,3.11,1.31-1.31c-.82-1.23-1.7-2.42-2.63-3.6l-1.79,1.79Z"/><path class="cls-4" d="M806.81,599.85c.09-.89,.15-1.79,.19-2.68l-1.44,1.44,1.24,1.24Z"/><path class="cls-4" d="M804.53,583.04l-3.11,3.11,3.11,3.11,2.06-2.06c-.11-.83-.23-1.66-.38-2.48l-1.68-1.68Z"/><path class="cls-4" d="M807,591.74c-.04-.89-.11-1.79-.19-2.68l-1.24,1.24,1.44,1.44Z"/><rect class="cls-4" x="727.62" y="625.45" width="4.4" height="4.4" transform="translate(-230.06 699.9) rotate(-45)"/><rect class="cls-4" x="731.77" y="629.6" width="4.4" height="4.4" transform="translate(-231.78 704.05) rotate(-45)"/><rect class="cls-4" x="735.92" y="625.45" width="4.4" height="4.4" transform="translate(-227.63 705.77) rotate(-45)"/><rect class="cls-4" x="723.47" y="637.9" width="4.4" height="4.4" transform="translate(-240.08 700.61) rotate(-45)"/><rect class="cls-4" x="773.28" y="588.1" width="4.4" height="4.4" transform="translate(-190.27 721.24) rotate(-45)"/><rect class="cls-4" x="777.43" y="583.95" width="4.4" height="4.4" transform="translate(-186.12 722.96) rotate(-45)"/><rect class="cls-4" x="794.03" y="567.35" width="4.4" height="4.4" transform="translate(-169.52 729.84) rotate(-45)"/><rect class="cls-4" x="785.73" y="575.65" width="4.4" height="4.4" transform="translate(-177.82 726.4) rotate(-45)"/><rect class="cls-4" x="769.13" y="592.25" width="4.4" height="4.4" transform="translate(-194.42 719.52) rotate(-45)"/><rect class="cls-4" x="727.62" y="633.75" width="4.4" height="4.4" transform="translate(-235.93 702.33) rotate(-45)"/><rect class="cls-4" x="781.58" y="579.8" width="4.4" height="4.4" transform="translate(-181.97 724.68) rotate(-45)"/><rect class="cls-4" x="760.83" y="600.55" width="4.4" height="4.4" transform="translate(-202.72 716.08) rotate(-45)"/><rect class="cls-4" x="740.07" y="621.3" width="4.4" height="4.4" transform="translate(-223.48 707.49) rotate(-45)"/><path class="cls-4" d="M724.64,644.26l-3.11-3.11-1.09,1.09c1.29,.82,2.6,1.59,3.94,2.29l.26-.26Z"/><rect class="cls-4" x="764.98" y="596.4" width="4.4" height="4.4" transform="translate(-198.57 717.8) rotate(-45)"/><rect class="cls-4" x="744.22" y="617.15" width="4.4" height="4.4" transform="translate(-219.33 709.21) rotate(-45)"/><rect class="cls-4" x="789.88" y="579.8" width="4.4" height="4.4" transform="translate(-179.54 730.55) rotate(-45)"/><rect class="cls-4" x="748.37" y="613" width="4.4" height="4.4" transform="translate(-215.18 710.93) rotate(-45)"/><rect class="cls-4" x="756.68" y="604.7" width="4.4" height="4.4" transform="translate(-206.88 714.36) rotate(-45)"/><rect class="cls-4" x="789.88" y="571.5" width="4.4" height="4.4" transform="translate(-173.67 728.12) rotate(-45)"/><rect class="cls-4" x="752.52" y="608.85" width="4.4" height="4.4" transform="translate(-211.03 712.65) rotate(-45)"/><rect class="cls-4" x="789.88" y="563.2" width="4.4" height="4.4" transform="translate(-167.8 725.69) rotate(-45)"/><path class="cls-4" d="M716.34,635.95l-3.11-3.11-2.06,2.06c1.06,1.03,2.15,2.02,3.27,2.95l1.9-1.9Z"/><rect class="cls-4" x="719.32" y="633.75" width="4.4" height="4.4" transform="translate(-238.36 696.46) rotate(-45)"/><rect class="cls-4" x="769.13" y="583.95" width="4.4" height="4.4" transform="translate(-188.56 717.09) rotate(-45)"/><rect class="cls-4" x="723.47" y="629.6" width="4.4" height="4.4" transform="translate(-234.21 698.18) rotate(-45)"/><path class="cls-4" d="M720.49,640.1l-3.11-3.11-1.79,1.79c1.17,.93,2.37,1.81,3.6,2.63l1.31-1.31Z"/><rect class="cls-4" x="794.03" y="575.65" width="4.4" height="4.4" transform="translate(-175.39 732.27) rotate(-45)"/><rect class="cls-4" x="785.73" y="567.35" width="4.4" height="4.4" transform="translate(-171.95 723.97) rotate(-45)"/><rect class="cls-4" x="777.43" y="575.65" width="4.4" height="4.4" transform="translate(-180.25 720.53) rotate(-45)"/><rect class="cls-4" x="781.58" y="571.5" width="4.4" height="4.4" transform="translate(-176.1 722.25) rotate(-45)"/><rect class="cls-4" x="731.77" y="621.3" width="4.4" height="4.4" transform="translate(-225.91 701.62) rotate(-45)"/><rect class="cls-4" x="744.22" y="608.85" width="4.4" height="4.4" transform="translate(-213.46 706.78) rotate(-45)"/><rect class="cls-4" x="740.07" y="613" width="4.4" height="4.4" transform="translate(-217.61 705.06) rotate(-45)"/><rect class="cls-4" x="748.37" y="604.7" width="4.4" height="4.4" transform="translate(-209.31 708.49) rotate(-45)"/><rect class="cls-4" x="735.92" y="617.15" width="4.4" height="4.4" transform="translate(-221.76 703.34) rotate(-45)"/><rect class="cls-4" x="752.52" y="600.55" width="4.4" height="4.4" transform="translate(-205.16 710.21) rotate(-45)"/><rect class="cls-4" x="760.83" y="592.25" width="4.4" height="4.4" transform="translate(-196.86 713.65) rotate(-45)"/><rect class="cls-4" x="764.98" y="588.1" width="4.4" height="4.4" transform="translate(-192.71 715.37) rotate(-45)"/><rect class="cls-4" x="773.28" y="579.8" width="4.4" height="4.4" transform="translate(-184.4 718.81) rotate(-45)"/><rect class="cls-4" x="756.68" y="596.4" width="4.4" height="4.4" transform="translate(-201.01 711.93) rotate(-45)"/><rect class="cls-4" x="777.43" y="600.55" width="4.4" height="4.4" transform="translate(-197.86 727.82) rotate(-45)"/><rect class="cls-4" x="760.83" y="617.15" width="4.4" height="4.4" transform="translate(-214.46 720.95) rotate(-45)"/><rect class="cls-4" x="756.68" y="621.3" width="4.4" height="4.4" transform="translate(-218.61 719.23) rotate(-45)"/><rect class="cls-4" x="764.98" y="613" width="4.4" height="4.4" transform="translate(-210.31 722.66) rotate(-45)"/><rect class="cls-4" x="781.58" y="596.4" width="4.4" height="4.4" transform="translate(-193.71 729.54) rotate(-45)"/><rect class="cls-4" x="785.73" y="592.25" width="4.4" height="4.4" transform="translate(-189.56 731.26) rotate(-45)"/><rect class="cls-4" x="748.37" y="629.6" width="4.4" height="4.4" transform="translate(-226.91 715.79) rotate(-45)"/><rect class="cls-4" x="769.13" y="608.85" width="4.4" height="4.4" transform="translate(-206.16 724.38) rotate(-45)"/><rect class="cls-4" x="773.28" y="613" width="4.4" height="4.4" transform="translate(-207.88 728.53) rotate(-45)"/><rect class="cls-4" x="773.28" y="604.7" width="4.4" height="4.4" transform="translate(-202.01 726.1) rotate(-45)"/><rect class="cls-4" x="785.73" y="583.95" width="4.4" height="4.4" transform="translate(-183.69 728.83) rotate(-45)"/><path class="cls-4" d="M733.97,645.29l-2.38,2.38c1.57,.56,3.16,1.04,4.77,1.46l.72-.72-3.11-3.11Z"/><rect class="cls-4" x="789.88" y="596.4" width="4.4" height="4.4" transform="translate(-191.28 735.41) rotate(-45)"/><rect class="cls-4" x="785.73" y="600.55" width="4.4" height="4.4" transform="translate(-195.43 733.69) rotate(-45)"/><rect class="cls-4" x="777.43" y="608.85" width="4.4" height="4.4" transform="translate(-203.73 730.25) rotate(-45)"/><rect class="cls-4" x="781.58" y="604.7" width="4.4" height="4.4" transform="translate(-199.58 731.97) rotate(-45)"/><rect class="cls-4" x="798.18" y="588.1" width="4.4" height="4.4" transform="translate(-182.98 738.85) rotate(-45)"/><rect class="cls-4" x="744.22" y="642.05" width="4.4" height="4.4" transform="translate(-236.93 716.5) rotate(-45)"/><rect class="cls-4" x="794.03" y="592.25" width="4.4" height="4.4" transform="translate(-187.13 737.13) rotate(-45)"/><rect class="cls-4" x="748.37" y="637.9" width="4.4" height="4.4" transform="translate(-232.78 718.22) rotate(-45)"/><rect class="cls-4" x="752.52" y="625.45" width="4.4" height="4.4" transform="translate(-222.76 717.51) rotate(-45)"/><rect class="cls-4" x="760.83" y="608.85" width="4.4" height="4.4" transform="translate(-208.59 718.51) rotate(-45)"/><rect class="cls-4" x="769.13" y="600.55" width="4.4" height="4.4" transform="translate(-200.29 721.95) rotate(-45)"/><rect class="cls-4" x="764.98" y="604.7" width="4.4" height="4.4" transform="translate(-204.44 720.23) rotate(-45)"/><rect class="cls-4" x="781.58" y="588.1" width="4.4" height="4.4" transform="translate(-187.84 727.11) rotate(-45)"/><rect class="cls-4" x="773.28" y="596.4" width="4.4" height="4.4" transform="translate(-196.14 723.67) rotate(-45)"/><rect class="cls-4" x="731.77" y="637.9" width="4.4" height="4.4" transform="translate(-237.65 706.48) rotate(-45)"/><rect class="cls-4" x="777.43" y="592.25" width="4.4" height="4.4" transform="translate(-191.99 725.39) rotate(-45)"/><rect class="cls-4" x="735.92" y="633.75" width="4.4" height="4.4" transform="translate(-233.5 708.2) rotate(-45)"/><rect class="cls-4" x="740.07" y="629.6" width="4.4" height="4.4" transform="translate(-229.35 709.92) rotate(-45)"/><rect class="cls-4" x="794.03" y="583.95" width="4.4" height="4.4" transform="translate(-181.26 734.7) rotate(-45)"/><rect class="cls-4" x="798.18" y="579.8" width="4.4" height="4.4" transform="translate(-177.11 736.42) rotate(-45)"/><rect class="cls-4" x="740.07" y="637.9" width="4.4" height="4.4" transform="translate(-235.22 712.35) rotate(-45)"/><rect class="cls-4" x="789.88" y="588.1" width="4.4" height="4.4" transform="translate(-185.41 732.98) rotate(-45)"/><rect class="cls-4" x="735.92" y="642.05" width="4.4" height="4.4" transform="translate(-239.37 710.63) rotate(-45)"/><rect class="cls-4" x="756.68" y="613" width="4.4" height="4.4" transform="translate(-212.74 716.8) rotate(-45)"/><rect class="cls-4" x="748.37" y="621.3" width="4.4" height="4.4" transform="translate(-221.05 713.36) rotate(-45)"/><rect class="cls-4" x="752.52" y="617.15" width="4.4" height="4.4" transform="translate(-216.89 715.08) rotate(-45)"/><rect class="cls-4" x="744.22" y="625.45" width="4.4" height="4.4" transform="translate(-225.2 711.64) rotate(-45)"/><rect class="cls-4" x="744.22" y="633.75" width="4.4" height="4.4" transform="translate(-231.06 714.07) rotate(-45)"/></g></g><g><circle class="cls-3" cx="520.63" cy="594.45" r="65.3"/><path class="cls-1" d="M474.46,640.62c-25.5-25.5-25.5-66.84,0-92.34,25.5-25.5,66.84-25.5,92.34,0"/><g><rect class="cls-4" x="547.48" y="550.75" width="4.4" height="4.4" transform="translate(-230 550.64) rotate(-45)"/><rect class="cls-4" x="535.03" y="563.2" width="4.4" height="4.4" transform="translate(-242.45 545.48) rotate(-45)"/><rect class="cls-4" x="543.33" y="554.9" width="4.4" height="4.4" transform="translate(-234.15 548.92) rotate(-45)"/><rect class="cls-4" x="481.08" y="617.15" width="4.4" height="4.4" transform="translate(-296.4 523.14) rotate(-45)"/><rect class="cls-4" x="539.18" y="559.05" width="4.4" height="4.4" transform="translate(-238.3 547.2) rotate(-45)"/><path class="cls-4" d="M473.94,623.5l-3.11-3.11-.26,.26c.7,1.34,1.47,2.65,2.29,3.94l1.09-1.09Z"/><rect class="cls-4" x="501.83" y="588.1" width="4.4" height="4.4" transform="translate(-269.78 529.3) rotate(-45)"/><rect class="cls-4" x="497.68" y="592.25" width="4.4" height="4.4" transform="translate(-273.93 527.58) rotate(-45)"/><rect class="cls-4" x="501.83" y="613" width="4.4" height="4.4" transform="translate(-287.39 536.59) rotate(-45)"/><rect class="cls-4" x="493.53" y="596.4" width="4.4" height="4.4" transform="translate(-278.08 525.86) rotate(-45)"/><rect class="cls-4" x="518.43" y="579.8" width="4.4" height="4.4" transform="translate(-259.05 538.61) rotate(-45)"/><rect class="cls-4" x="522.58" y="575.65" width="4.4" height="4.4" transform="translate(-254.9 540.33) rotate(-45)"/><rect class="cls-4" x="514.28" y="583.95" width="4.4" height="4.4" transform="translate(-263.2 536.89) rotate(-45)"/><rect class="cls-4" x="510.13" y="588.1" width="4.4" height="4.4" transform="translate(-267.35 535.17) rotate(-45)"/><rect class="cls-4" x="485.23" y="613" width="4.4" height="4.4" transform="translate(-292.25 524.85) rotate(-45)"/><rect class="cls-4" x="530.88" y="567.35" width="4.4" height="4.4" transform="translate(-246.6 543.76) rotate(-45)"/><rect class="cls-4" x="505.98" y="592.25" width="4.4" height="4.4" transform="translate(-271.5 533.45) rotate(-45)"/><rect class="cls-4" x="489.38" y="608.85" width="4.4" height="4.4" transform="translate(-288.1 526.57) rotate(-45)"/><rect class="cls-4" x="526.73" y="571.5" width="4.4" height="4.4" transform="translate(-250.75 542.05) rotate(-45)"/><rect class="cls-4" x="476.93" y="621.3" width="4.4" height="4.4" transform="translate(-300.55 521.42) rotate(-45)"/><rect class="cls-4" x="543.33" y="546.6" width="4.4" height="4.4" transform="translate(-228.28 546.49) rotate(-45)"/><path class="cls-4" d="M473.94,615.2l-3.11-3.11-2.85,2.85c.11,.29,.22,.58,.33,.87l2.51,2.51,3.11-3.11Z"/><rect class="cls-4" x="539.18" y="550.75" width="4.4" height="4.4" transform="translate(-232.43 544.77) rotate(-45)"/><rect class="cls-4" x="535.03" y="554.9" width="4.4" height="4.4" transform="translate(-236.58 543.05) rotate(-45)"/><rect class="cls-4" x="530.88" y="559.05" width="4.4" height="4.4" transform="translate(-240.73 541.33) rotate(-45)"/><rect class="cls-4" x="493.53" y="588.1" width="4.4" height="4.4" transform="translate(-272.21 523.43) rotate(-45)"/><rect class="cls-4" x="497.68" y="583.95" width="4.4" height="4.4" transform="translate(-268.06 525.15) rotate(-45)"/><rect class="cls-4" x="489.38" y="592.25" width="4.4" height="4.4" transform="translate(-276.36 521.71) rotate(-45)"/><rect class="cls-4" x="485.23" y="596.4" width="4.4" height="4.4" transform="translate(-280.51 519.99) rotate(-45)"/><rect class="cls-4" x="481.08" y="608.85" width="4.4" height="4.4" transform="translate(-290.53 520.7) rotate(-45)"/><rect class="cls-4" x="526.73" y="563.2" width="4.4" height="4.4" transform="translate(-244.88 539.61) rotate(-45)"/><rect class="cls-4" x="518.43" y="571.5" width="4.4" height="4.4" transform="translate(-253.18 536.18) rotate(-45)"/><rect class="cls-4" x="514.28" y="575.65" width="4.4" height="4.4" transform="translate(-257.33 534.46) rotate(-45)"/><rect class="cls-4" x="510.13" y="579.8" width="4.4" height="4.4" transform="translate(-261.48 532.74) rotate(-45)"/><rect class="cls-4" x="472.78" y="617.15" width="4.4" height="4.4" transform="translate(-298.83 517.27) rotate(-45)"/><rect class="cls-4" x="505.98" y="583.95" width="4.4" height="4.4" transform="translate(-265.63 531.02) rotate(-45)"/><rect class="cls-4" x="476.93" y="613" width="4.4" height="4.4" transform="translate(-294.68 518.98) rotate(-45)"/><rect class="cls-4" x="522.58" y="567.35" width="4.4" height="4.4" transform="translate(-249.03 537.89) rotate(-45)"/><rect class="cls-4" x="485.23" y="604.7" width="4.4" height="4.4" transform="translate(-286.38 522.42) rotate(-45)"/><rect class="cls-4" x="551.63" y="554.9" width="4.4" height="4.4" transform="translate(-231.71 554.79) rotate(-45)"/><rect class="cls-4" x="489.38" y="625.45" width="4.4" height="4.4" transform="translate(-299.84 531.44) rotate(-45)"/><rect class="cls-4" x="543.33" y="571.5" width="4.4" height="4.4" transform="translate(-245.88 553.78) rotate(-45)"/><rect class="cls-4" x="493.53" y="621.3" width="4.4" height="4.4" transform="translate(-295.69 533.15) rotate(-45)"/><rect class="cls-4" x="547.48" y="567.35" width="4.4" height="4.4" transform="translate(-241.73 555.5) rotate(-45)"/><rect class="cls-4" x="485.23" y="629.6" width="4.4" height="4.4" transform="translate(-303.99 529.72) rotate(-45)"/><rect class="cls-4" x="551.63" y="563.2" width="4.4" height="4.4" transform="translate(-237.58 557.22) rotate(-45)"/><rect class="cls-4" x="497.68" y="608.85" width="4.4" height="4.4" transform="translate(-285.67 532.44) rotate(-45)"/><path class="cls-4" d="M482.24,631.8l-3.11-3.11-1.9,1.9c.93,1.12,1.92,2.21,2.95,3.27l2.06-2.06Z"/><rect class="cls-4" x="555.78" y="559.05" width="4.4" height="4.4" transform="translate(-233.43 558.94) rotate(-45)"/><rect class="cls-4" x="501.83" y="596.4" width="4.4" height="4.4" transform="translate(-275.65 531.73) rotate(-45)"/><rect class="cls-4" x="505.98" y="608.85" width="4.4" height="4.4" transform="translate(-283.24 538.31) rotate(-45)"/><rect class="cls-4" x="518.43" y="596.4" width="4.4" height="4.4" transform="translate(-270.79 543.47) rotate(-45)"/><rect class="cls-4" x="510.13" y="604.7" width="4.4" height="4.4" transform="translate(-279.09 540.03) rotate(-45)"/><rect class="cls-4" x="535.03" y="579.8" width="4.4" height="4.4" transform="translate(-254.18 550.35) rotate(-45)"/><rect class="cls-4" x="501.83" y="604.7" width="4.4" height="4.4" transform="translate(-281.52 534.16) rotate(-45)"/><rect class="cls-4" x="514.28" y="600.55" width="4.4" height="4.4" transform="translate(-274.94 541.75) rotate(-45)"/><rect class="cls-4" x="530.88" y="583.95" width="4.4" height="4.4" transform="translate(-258.34 548.63) rotate(-45)"/><rect class="cls-4" x="539.18" y="575.65" width="4.4" height="4.4" transform="translate(-250.03 552.06) rotate(-45)"/><rect class="cls-4" x="522.58" y="592.25" width="4.4" height="4.4" transform="translate(-266.64 545.19) rotate(-45)"/><rect class="cls-4" x="526.73" y="588.1" width="4.4" height="4.4" transform="translate(-262.49 546.91) rotate(-45)"/><rect class="cls-4" x="497.68" y="617.15" width="4.4" height="4.4" transform="translate(-291.54 534.87) rotate(-45)"/><rect class="cls-4" x="501.83" y="579.8" width="4.4" height="4.4" transform="translate(-263.91 526.87) rotate(-45)"/><rect class="cls-4" x="543.33" y="563.2" width="4.4" height="4.4" transform="translate(-240.01 551.35) rotate(-45)"/><rect class="cls-4" x="539.18" y="567.35" width="4.4" height="4.4" transform="translate(-244.17 549.63) rotate(-45)"/><rect class="cls-4" x="485.23" y="621.3" width="4.4" height="4.4" transform="translate(-298.12 527.29) rotate(-45)"/><path class="cls-4" d="M478.09,627.65l-3.11-3.11-1.31,1.31c.82,1.23,1.7,2.42,2.63,3.6l1.79-1.79Z"/><rect class="cls-4" x="497.68" y="600.55" width="4.4" height="4.4" transform="translate(-279.8 530.01) rotate(-45)"/><rect class="cls-4" x="493.53" y="604.7" width="4.4" height="4.4" transform="translate(-283.95 528.29) rotate(-45)"/><rect class="cls-4" x="547.48" y="559.05" width="4.4" height="4.4" transform="translate(-235.86 553.07) rotate(-45)"/><rect class="cls-4" x="481.08" y="625.45" width="4.4" height="4.4" transform="translate(-302.27 525.57) rotate(-45)"/><rect class="cls-4" x="514.28" y="592.25" width="4.4" height="4.4" transform="translate(-269.07 539.32) rotate(-45)"/><rect class="cls-4" x="505.98" y="600.55" width="4.4" height="4.4" transform="translate(-277.37 535.88) rotate(-45)"/><rect class="cls-4" x="518.43" y="588.1" width="4.4" height="4.4" transform="translate(-264.92 541.04) rotate(-45)"/><rect class="cls-4" x="522.58" y="583.95" width="4.4" height="4.4" transform="translate(-260.77 542.76) rotate(-45)"/><rect class="cls-4" x="489.38" y="617.15" width="4.4" height="4.4" transform="translate(-293.97 529) rotate(-45)"/><rect class="cls-4" x="510.13" y="596.4" width="4.4" height="4.4" transform="translate(-273.22 537.6) rotate(-45)"/><rect class="cls-4" x="493.53" y="613" width="4.4" height="4.4" transform="translate(-289.82 530.72) rotate(-45)"/><rect class="cls-4" x="530.88" y="575.65" width="4.4" height="4.4" transform="translate(-252.47 546.2) rotate(-45)"/><rect class="cls-4" x="526.73" y="579.8" width="4.4" height="4.4" transform="translate(-256.62 544.48) rotate(-45)"/><rect class="cls-4" x="535.03" y="571.5" width="4.4" height="4.4" transform="translate(-248.32 547.91) rotate(-45)"/><rect class="cls-4" x="489.38" y="600.55" width="4.4" height="4.4" transform="translate(-282.23 524.14) rotate(-45)"/><rect class="cls-4" x="497.68" y="559.05" width="4.4" height="4.4" transform="translate(-250.45 517.86) rotate(-45)"/><rect class="cls-4" x="501.83" y="554.9" width="4.4" height="4.4" transform="translate(-246.3 519.57) rotate(-45)"/><rect class="cls-4" x="493.53" y="563.2" width="4.4" height="4.4" transform="translate(-254.6 516.14) rotate(-45)"/><rect class="cls-4" x="485.23" y="571.5" width="4.4" height="4.4" transform="translate(-262.9 512.7) rotate(-45)"/><rect class="cls-4" x="510.13" y="546.6" width="4.4" height="4.4" transform="translate(-238 523.01) rotate(-45)"/><rect class="cls-4" x="489.38" y="567.35" width="4.4" height="4.4" transform="translate(-258.75 514.42) rotate(-45)"/><rect class="cls-4" x="505.98" y="550.75" width="4.4" height="4.4" transform="translate(-242.15 521.29) rotate(-45)"/><rect class="cls-4" x="468.63" y="579.8" width="4.4" height="4.4" transform="translate(-273.63 503.39) rotate(-45)"/><rect class="cls-4" x="472.78" y="575.65" width="4.4" height="4.4" transform="translate(-269.48 505.11) rotate(-45)"/><rect class="cls-4" x="476.93" y="571.5" width="4.4" height="4.4" transform="translate(-265.33 506.83) rotate(-45)"/><path class="cls-4" d="M464.4,589.06c-.09,.89-.15,1.79-.19,2.68l1.44-1.44-1.24-1.24Z"/><path class="cls-4" d="M464.2,597.17c.04,.89,.11,1.79,.19,2.68l1.24-1.24-1.44-1.44Z"/><rect class="cls-4" x="481.08" y="575.65" width="4.4" height="4.4" transform="translate(-267.05 510.98) rotate(-45)"/><path class="cls-4" d="M464.15,595.04l2.53,2.53,3.11-3.11-3.11-3.11-2.53,2.53c0,.39,0,.78,0,1.18Z"/><rect class="cls-4" x="522.58" y="542.45" width="4.4" height="4.4" transform="translate(-231.42 530.6) rotate(-45)"/><rect class="cls-4" x="518.43" y="546.6" width="4.4" height="4.4" transform="translate(-235.57 528.88) rotate(-45)"/><rect class="cls-4" x="476.93" y="579.8" width="4.4" height="4.4" transform="translate(-271.2 509.26) rotate(-45)"/><rect class="cls-4" x="472.78" y="583.95" width="4.4" height="4.4" transform="translate(-275.35 507.54) rotate(-45)"/><rect class="cls-4" x="468.63" y="588.1" width="4.4" height="4.4" transform="translate(-279.5 505.82) rotate(-45)"/><rect class="cls-4" x="514.28" y="542.45" width="4.4" height="4.4" transform="translate(-233.85 524.74) rotate(-45)"/><rect class="cls-4" x="481.08" y="567.35" width="4.4" height="4.4" transform="translate(-261.18 508.55) rotate(-45)"/><rect class="cls-4" x="485.23" y="554.9" width="4.4" height="4.4" transform="translate(-251.16 507.84) rotate(-45)"/><rect class="cls-4" x="493.53" y="546.6" width="4.4" height="4.4" transform="translate(-242.86 511.27) rotate(-45)"/><rect class="cls-4" x="472.78" y="592.25" width="4.4" height="4.4" transform="translate(-281.22 509.97) rotate(-45)"/><rect class="cls-4" x="481.08" y="559.05" width="4.4" height="4.4" transform="translate(-255.31 506.12) rotate(-45)"/><path class="cls-4" d="M465.56,581.92c-.02,.07-.03,.15-.05,.22l.13-.13-.09-.09Z"/><path class="cls-4" d="M499.88,641.14l-3.11,3.11,2.51,2.51c.29,.12,.58,.22,.87,.33l2.85-2.85-3.11-3.11Z"/><rect class="cls-4" x="476.93" y="563.2" width="4.4" height="4.4" transform="translate(-259.46 504.4) rotate(-45)"/><path class="cls-4" d="M541.38,547.76l3.11-3.11-2.51-2.51c-.29-.12-.58-.22-.87-.33l-2.85,2.85,3.11,3.11Z"/><path class="cls-4" d="M469.79,577.85l-2.38-2.38c-.56,1.57-1.04,3.16-1.46,4.77l.72,.72,3.11-3.11Z"/><rect class="cls-4" x="489.38" y="550.75" width="4.4" height="4.4" transform="translate(-247.01 509.55) rotate(-45)"/><rect class="cls-4" x="489.38" y="559.05" width="4.4" height="4.4" transform="translate(-252.88 511.99) rotate(-45)"/><rect class="cls-4" x="497.68" y="550.75" width="4.4" height="4.4" transform="translate(-244.58 515.42) rotate(-45)"/><rect class="cls-4" x="493.53" y="554.9" width="4.4" height="4.4" transform="translate(-248.73 513.71) rotate(-45)"/><rect class="cls-4" x="485.23" y="563.2" width="4.4" height="4.4" transform="translate(-257.03 510.27) rotate(-45)"/><rect class="cls-4" x="505.98" y="542.45" width="4.4" height="4.4" transform="translate(-236.28 518.86) rotate(-45)"/><path class="cls-4" d="M466.68,589.26l3.11-3.11-3.11-3.11-1.68,1.68c-.14,.82-.27,1.65-.38,2.48l2.06,2.06Z"/><rect class="cls-4" x="472.78" y="567.35" width="4.4" height="4.4" transform="translate(-263.61 502.68) rotate(-45)"/><path class="cls-4" d="M507.14,540.5l-.72-.72c-1.61,.42-3.2,.9-4.77,1.46l2.38,2.38,3.11-3.11Z"/><rect class="cls-4" x="501.83" y="546.6" width="4.4" height="4.4" transform="translate(-240.43 517.14) rotate(-45)"/><rect class="cls-4" x="497.68" y="575.65" width="4.4" height="4.4" transform="translate(-262.19 522.72) rotate(-45)"/><rect class="cls-4" x="481.08" y="592.25" width="4.4" height="4.4" transform="translate(-278.79 515.84) rotate(-45)"/><rect class="cls-4" x="485.23" y="588.1" width="4.4" height="4.4" transform="translate(-274.64 517.56) rotate(-45)"/><rect class="cls-4" x="489.38" y="583.95" width="4.4" height="4.4" transform="translate(-270.49 519.28) rotate(-45)"/><rect class="cls-4" x="530.88" y="550.75" width="4.4" height="4.4" transform="translate(-234.86 538.9) rotate(-45)"/><path class="cls-4" d="M466.68,607.94l-.72,.72c.42,1.61,.9,3.2,1.46,4.77l2.38-2.38-3.11-3.11Z"/><rect class="cls-4" x="501.83" y="571.5" width="4.4" height="4.4" transform="translate(-258.04 524.44) rotate(-45)"/><rect class="cls-4" x="493.53" y="579.8" width="4.4" height="4.4" transform="translate(-266.34 521) rotate(-45)"/><rect class="cls-4" x="505.98" y="567.35" width="4.4" height="4.4" transform="translate(-253.89 526.16) rotate(-45)"/><rect class="cls-4" x="505.98" y="575.65" width="4.4" height="4.4" transform="translate(-259.76 528.59) rotate(-45)"/><rect class="cls-4" x="510.13" y="563.2" width="4.4" height="4.4" transform="translate(-249.74 527.88) rotate(-45)"/><rect class="cls-4" x="514.28" y="567.35" width="4.4" height="4.4" transform="translate(-251.46 532.03) rotate(-45)"/><rect class="cls-4" x="468.63" y="596.4" width="4.4" height="4.4" transform="translate(-285.37 508.25) rotate(-45)"/><rect class="cls-4" x="522.58" y="559.05" width="4.4" height="4.4" transform="translate(-243.16 535.46) rotate(-45)"/><rect class="cls-4" x="535.03" y="546.6" width="4.4" height="4.4" transform="translate(-230.71 540.62) rotate(-45)"/><rect class="cls-4" x="510.13" y="571.5" width="4.4" height="4.4" transform="translate(-255.61 530.31) rotate(-45)"/><rect class="cls-4" x="526.73" y="554.9" width="4.4" height="4.4" transform="translate(-239.01 537.18) rotate(-45)"/><rect class="cls-4" x="476.93" y="604.7" width="4.4" height="4.4" transform="translate(-288.81 516.55) rotate(-45)"/><rect class="cls-4" x="481.08" y="600.55" width="4.4" height="4.4" transform="translate(-284.66 518.27) rotate(-45)"/><rect class="cls-4" x="472.78" y="608.85" width="4.4" height="4.4" transform="translate(-292.96 514.83) rotate(-45)"/><rect class="cls-4" x="518.43" y="563.2" width="4.4" height="4.4" transform="translate(-247.31 533.74) rotate(-45)"/><rect class="cls-4" x="493.53" y="571.5" width="4.4" height="4.4" transform="translate(-260.47 518.57) rotate(-45)"/><rect class="cls-4" x="489.38" y="575.65" width="4.4" height="4.4" transform="translate(-264.62 516.85) rotate(-45)"/><rect class="cls-4" x="481.08" y="583.95" width="4.4" height="4.4" transform="translate(-272.92 513.41) rotate(-45)"/><rect class="cls-4" x="518.43" y="554.9" width="4.4" height="4.4" transform="translate(-241.44 531.31) rotate(-45)"/><rect class="cls-4" x="485.23" y="579.8" width="4.4" height="4.4" transform="translate(-268.77 515.13) rotate(-45)"/><rect class="cls-4" x="501.83" y="563.2" width="4.4" height="4.4" transform="translate(-252.17 522.01) rotate(-45)"/><rect class="cls-4" x="510.13" y="554.9" width="4.4" height="4.4" transform="translate(-243.87 525.44) rotate(-45)"/><rect class="cls-4" x="514.28" y="550.75" width="4.4" height="4.4" transform="translate(-239.72 527.16) rotate(-45)"/><rect class="cls-4" x="505.98" y="559.05" width="4.4" height="4.4" transform="translate(-248.02 523.72) rotate(-45)"/><rect class="cls-4" x="497.68" y="567.35" width="4.4" height="4.4" transform="translate(-256.32 520.29) rotate(-45)"/><rect class="cls-4" x="522.58" y="550.75" width="4.4" height="4.4" transform="translate(-237.29 533.03) rotate(-45)"/><rect class="cls-4" x="476.93" y="596.4" width="4.4" height="4.4" transform="translate(-282.94 514.12) rotate(-45)"/><rect class="cls-4" x="468.63" y="604.7" width="4.4" height="4.4" transform="translate(-291.24 510.68) rotate(-45)"/><rect class="cls-4" x="514.28" y="559.05" width="4.4" height="4.4" transform="translate(-245.59 529.59) rotate(-45)"/><path class="cls-4" d="M465.51,606.77c.02,.07,.03,.15,.05,.22l.09-.09-.13-.13Z"/><path class="cls-4" d="M466.68,605.87l3.11-3.11-3.11-3.11-2.06,2.06c.11,.83,.23,1.66,.38,2.48l1.68,1.68Z"/><rect class="cls-4" x="476.93" y="588.1" width="4.4" height="4.4" transform="translate(-277.07 511.69) rotate(-45)"/><rect class="cls-4" x="526.73" y="546.6" width="4.4" height="4.4" transform="translate(-233.14 534.75) rotate(-45)"/><rect class="cls-4" x="530.88" y="542.45" width="4.4" height="4.4" transform="translate(-228.99 536.47) rotate(-45)"/><rect class="cls-4" x="472.78" y="600.55" width="4.4" height="4.4" transform="translate(-287.09 512.4) rotate(-45)"/><rect class="cls-4" x="551.63" y="621.3" width="4.4" height="4.4" transform="translate(-278.67 574.24) rotate(-45)"/><rect class="cls-4" x="559.93" y="613" width="4.4" height="4.4" transform="translate(-270.37 577.68) rotate(-45)"/><rect class="cls-4" x="555.78" y="617.15" width="4.4" height="4.4" transform="translate(-274.52 575.96) rotate(-45)"/><rect class="cls-4" x="547.48" y="633.75" width="4.4" height="4.4" transform="translate(-288.69 574.95) rotate(-45)"/><rect class="cls-4" x="543.33" y="629.6" width="4.4" height="4.4" transform="translate(-286.97 570.8) rotate(-45)"/><rect class="cls-4" x="547.48" y="625.45" width="4.4" height="4.4" transform="translate(-282.82 572.52) rotate(-45)"/><path class="cls-4" d="M520.63,645.29l-3.11,3.11,2.53,2.53c.39,0,.78,0,1.18,0l2.53-2.53-3.11-3.11Z"/><path class="cls-4" d="M523.35,650.88c.89-.04,1.79-.11,2.68-.19l-1.24-1.24-1.44,1.44Z"/><rect class="cls-4" x="564.08" y="608.85" width="4.4" height="4.4" transform="translate(-266.22 579.4) rotate(-45)"/><rect class="cls-4" x="568.23" y="604.7" width="4.4" height="4.4" transform="translate(-262.07 581.12) rotate(-45)"/><path class="cls-4" d="M528.93,645.29l-3.11,3.11,2.06,2.06c.83-.11,1.66-.23,2.48-.38l1.68-1.68-3.11-3.11Z"/><rect class="cls-4" x="559.93" y="621.3" width="4.4" height="4.4" transform="translate(-276.24 580.11) rotate(-45)"/><rect class="cls-4" x="555.78" y="625.45" width="4.4" height="4.4" transform="translate(-280.39 578.39) rotate(-45)"/><rect class="cls-4" x="564.08" y="617.15" width="4.4" height="4.4" transform="translate(-272.09 581.83) rotate(-45)"/><rect class="cls-4" x="551.63" y="629.6" width="4.4" height="4.4" transform="translate(-284.54 576.67) rotate(-45)"/><path class="cls-4" d="M534.12,648.41l.72,.72c1.61-.42,3.2-.9,4.77-1.46l-2.38-2.38-3.11,3.11Z"/><path class="cls-4" d="M533.08,649.44l-.13,.13c.07-.02,.15-.03,.22-.05l-.09-.09Z"/><rect class="cls-4" x="530.88" y="642.05" width="4.4" height="4.4" transform="translate(-299.42 565.64) rotate(-45)"/><rect class="cls-4" x="535.03" y="637.9" width="4.4" height="4.4" transform="translate(-295.27 567.36) rotate(-45)"/><path class="cls-4" d="M541.38,641.14l-3.11,3.11,2.85,2.85c.29-.11,.58-.22,.87-.33l2.51-2.51-3.11-3.11Z"/><rect class="cls-4" x="539.18" y="633.75" width="4.4" height="4.4" transform="translate(-291.12 569.08) rotate(-45)"/><path class="cls-4" d="M508.18,649.44l-.09,.09c.07,.02,.15,.03,.22,.05l-.13-.13Z"/><path class="cls-4" d="M512.33,645.29l-3.11,3.11,1.68,1.68c.82,.14,1.65,.27,2.48,.38l2.06-2.06-3.11-3.11Z"/><rect class="cls-4" x="559.93" y="604.7" width="4.4" height="4.4" transform="translate(-264.5 575.25) rotate(-45)"/><rect class="cls-4" x="564.08" y="600.55" width="4.4" height="4.4" transform="translate(-260.35 576.97) rotate(-45)"/><rect class="cls-4" x="526.73" y="629.6" width="4.4" height="4.4" transform="translate(-291.83 559.06) rotate(-45)"/><rect class="cls-4" x="535.03" y="621.3" width="4.4" height="4.4" transform="translate(-283.53 562.5) rotate(-45)"/><rect class="cls-4" x="530.88" y="625.45" width="4.4" height="4.4" transform="translate(-287.68 560.78) rotate(-45)"/><rect class="cls-4" x="555.78" y="608.85" width="4.4" height="4.4" transform="translate(-268.65 573.53) rotate(-45)"/><rect class="cls-4" x="522.58" y="633.75" width="4.4" height="4.4" transform="translate(-295.98 557.34) rotate(-45)"/><rect class="cls-4" x="547.48" y="617.15" width="4.4" height="4.4" transform="translate(-276.95 570.09) rotate(-45)"/><rect class="cls-4" x="526.73" y="637.9" width="4.4" height="4.4" transform="translate(-297.7 561.49) rotate(-45)"/><rect class="cls-4" x="522.58" y="642.05" width="4.4" height="4.4" transform="translate(-301.85 559.78) rotate(-45)"/><rect class="cls-4" x="530.88" y="633.75" width="4.4" height="4.4" transform="translate(-293.55 563.21) rotate(-45)"/><rect class="cls-4" x="568.23" y="596.4" width="4.4" height="4.4" transform="translate(-256.2 578.69) rotate(-45)"/><rect class="cls-4" x="551.63" y="613" width="4.4" height="4.4" transform="translate(-272.8 571.81) rotate(-45)"/><rect class="cls-4" x="543.33" y="621.3" width="4.4" height="4.4" transform="translate(-281.1 568.37) rotate(-45)"/><rect class="cls-4" x="535.03" y="629.6" width="4.4" height="4.4" transform="translate(-289.4 564.93) rotate(-45)"/><path class="cls-4" d="M516.48,649.44l-1.24,1.24c.89,.08,1.79,.15,2.68,.19l-1.44-1.44Z"/><rect class="cls-4" x="539.18" y="625.45" width="4.4" height="4.4" transform="translate(-285.25 566.65) rotate(-45)"/><path class="cls-4" d="M557.98,632.84l-3.11,3.11,1.9,1.9c1.12-.93,2.21-1.92,3.27-2.95l-2.06-2.06Z"/><path class="cls-4" d="M512.33,543.61l3.11-3.11-2.06-2.06c-.83,.11-1.66,.23-2.48,.38l-1.68,1.68,3.11,3.11Z"/><path class="cls-4" d="M559.02,557.1l3.11,3.11,1.9-1.9c-.93-1.12-1.92-2.21-2.95-3.27l-2.06,2.06Z"/><path class="cls-4" d="M524.78,539.46l1.24-1.24c-.89-.08-1.79-.15-2.68-.19l1.44,1.44Z"/><path class="cls-4" d="M520.63,543.61l3.11-3.11-2.53-2.53c-.39,0-.78,0-1.18,0l-2.53,2.53,3.11,3.11Z"/><path class="cls-4" d="M517.92,538.02c-.89,.04-1.79,.11-2.68,.19l1.24,1.24,1.44-1.44Z"/><rect class="cls-4" x="543.33" y="637.9" width="4.4" height="4.4" transform="translate(-292.84 573.23) rotate(-45)"/><path class="cls-4" d="M554.87,552.95l3.11,3.11,2.06-2.06c-1.06-1.03-2.15-2.02-3.27-2.95l-1.9,1.9Z"/><path class="cls-4" d="M537.23,543.61l2.38-2.38c-1.57-.56-3.16-1.04-4.77-1.46l-.72,.72,3.11,3.11Z"/><path class="cls-4" d="M550.72,548.8l3.11,3.11,1.79-1.79c-1.17-.93-2.37-1.81-3.6-2.63l-1.31,1.31Z"/><path class="cls-4" d="M546.57,544.65l3.11,3.11,1.09-1.09c-1.29-.82-2.6-1.59-3.94-2.29l-.26,.26Z"/><path class="cls-4" d="M533.08,539.46l.09-.09c-.07-.02-.15-.03-.22-.05l.13,.13Z"/><path class="cls-4" d="M470.83,568.51l3.11-3.11-1.09-1.09c-.82,1.29-1.59,2.6-2.29,3.94l.26,.26Z"/><path class="cls-4" d="M508.18,539.46l.13-.13c-.07,.02-.15,.03-.22,.05l.09,.09Z"/><path class="cls-4" d="M470.83,576.81l3.11-3.11-3.11-3.11-2.51,2.51c-.12,.29-.22,.58-.33,.87l2.85,2.85Z"/><path class="cls-4" d="M479.13,560.21l3.11-3.11-2.06-2.06c-1.03,1.06-2.02,2.15-2.95,3.27l1.9,1.9Z"/><path class="cls-4" d="M474.98,564.36l3.11-3.11-1.79-1.79c-.93,1.17-1.81,2.37-2.63,3.6l1.31,1.31Z"/><path class="cls-4" d="M491.58,547.76l3.11-3.11-.26-.26c-1.34,.7-2.65,1.47-3.94,2.29l1.09,1.09Z"/><path class="cls-4" d="M483.28,556.06l3.11-3.11-1.9-1.9c-1.12,.93-2.21,1.92-3.27,2.95l2.06,2.06Z"/><path class="cls-4" d="M499.88,547.76l3.11-3.11-2.85-2.85c-.29,.11-.58,.22-.87,.33l-2.51,2.51,3.11,3.11Z"/><path class="cls-4" d="M487.43,551.91l3.11-3.11-1.31-1.31c-1.23,.82-2.42,1.7-3.6,2.63l1.79,1.79Z"/><path class="cls-4" d="M528.93,543.61l3.11-3.11-1.68-1.68c-.82-.14-1.65-.27-2.48-.38l-2.06,2.06,3.11,3.11Z"/><path class="cls-4" d="M570.44,620.39l-3.11,3.11,1.09,1.09c.82-1.29,1.59-2.6,2.29-3.94l-.26-.26Z"/><path class="cls-4" d="M570.44,612.09l-3.11,3.11,3.11,3.11,2.51-2.51c.12-.29,.22-.58,.33-.87l-2.85-2.85Z"/><path class="cls-4" d="M566.29,624.54l-3.11,3.11,1.79,1.79c.93-1.17,1.81-2.37,2.63-3.6l-1.31-1.31Z"/><path class="cls-4" d="M571.47,611.05l2.38,2.38c.56-1.57,1.04-3.16,1.46-4.77l-.72-.72-3.11,3.11Z"/><path class="cls-4" d="M549.68,641.14l-3.11,3.11,.26,.26c1.34-.7,2.65-1.47,3.94-2.29l-1.09-1.09Z"/><path class="cls-4" d="M553.83,636.99l-3.11,3.11,1.31,1.31c1.23-.82,2.42-1.7,3.6-2.63l-1.79-1.79Z"/><path class="cls-4" d="M562.14,628.69l-3.11,3.11,2.06,2.06c1.03-1.06,2.02-2.15,2.95-3.27l-1.9-1.9Z"/><path class="cls-4" d="M575.71,606.99c.02-.07,.03-.15,.05-.22l-.13,.13,.09,.09Z"/><rect class="cls-4" x="539.18" y="617.15" width="4.4" height="4.4" transform="translate(-279.38 564.22) rotate(-45)"/><path class="cls-4" d="M577.11,593.86l-2.53-2.53-3.11,3.11,3.11,3.11,2.53-2.53c0-.39,0-.78,0-1.18Z"/><path class="cls-4" d="M575.76,582.13c-.02-.07-.03-.15-.05-.22l-.09,.09,.13,.13Z"/><path class="cls-4" d="M567.32,573.7l3.11,3.11,2.85-2.85c-.11-.29-.22-.58-.33-.87l-2.51-2.51-3.11,3.11Z"/><path class="cls-4" d="M574.59,599.64l-3.11,3.11,3.11,3.11,1.68-1.68c.14-.82,.27-1.65,.38-2.48l-2.06-2.06Z"/><path class="cls-4" d="M567.32,565.4l3.11,3.11,.26-.26c-.7-1.34-1.47-2.65-2.29-3.94l-1.09,1.09Z"/><path class="cls-4" d="M574.59,580.96l.72-.72c-.42-1.61-.9-3.2-1.46-4.77l-2.38,2.38,3.11,3.11Z"/><path class="cls-4" d="M563.17,561.25l3.11,3.11,1.31-1.31c-.82-1.23-1.7-2.42-2.63-3.6l-1.79,1.79Z"/><path class="cls-4" d="M576.87,599.85c.09-.89,.15-1.79,.19-2.68l-1.44,1.44,1.24,1.24Z"/><path class="cls-4" d="M574.59,583.04l-3.11,3.11,3.11,3.11,2.06-2.06c-.11-.83-.23-1.66-.38-2.48l-1.68-1.68Z"/><path class="cls-4" d="M577.06,591.74c-.04-.89-.11-1.79-.19-2.68l-1.24,1.24,1.44,1.44Z"/><rect class="cls-4" x="497.68" y="625.45" width="4.4" height="4.4" transform="translate(-297.41 537.3) rotate(-45)"/><rect class="cls-4" x="501.83" y="629.6" width="4.4" height="4.4" transform="translate(-299.13 541.46) rotate(-45)"/><rect class="cls-4" x="505.98" y="625.45" width="4.4" height="4.4" transform="translate(-294.98 543.17) rotate(-45)"/><rect class="cls-4" x="493.53" y="637.9" width="4.4" height="4.4" transform="translate(-307.43 538.02) rotate(-45)"/><rect class="cls-4" x="543.33" y="588.1" width="4.4" height="4.4" transform="translate(-257.62 558.65) rotate(-45)"/><rect class="cls-4" x="547.48" y="583.95" width="4.4" height="4.4" transform="translate(-253.47 560.37) rotate(-45)"/><rect class="cls-4" x="564.08" y="567.35" width="4.4" height="4.4" transform="translate(-236.87 567.24) rotate(-45)"/><rect class="cls-4" x="555.78" y="575.65" width="4.4" height="4.4" transform="translate(-245.17 563.8) rotate(-45)"/><rect class="cls-4" x="539.18" y="592.25" width="4.4" height="4.4" transform="translate(-261.77 556.93) rotate(-45)"/><rect class="cls-4" x="497.68" y="633.75" width="4.4" height="4.4" transform="translate(-303.28 539.74) rotate(-45)"/><rect class="cls-4" x="551.63" y="579.8" width="4.4" height="4.4" transform="translate(-249.32 562.08) rotate(-45)"/><rect class="cls-4" x="530.88" y="600.55" width="4.4" height="4.4" transform="translate(-270.07 553.49) rotate(-45)"/><rect class="cls-4" x="510.13" y="621.3" width="4.4" height="4.4" transform="translate(-290.83 544.89) rotate(-45)"/><path class="cls-4" d="M494.69,644.26l-3.11-3.11-1.09,1.09c1.29,.82,2.6,1.59,3.94,2.29l.26-.26Z"/><rect class="cls-4" x="535.03" y="596.4" width="4.4" height="4.4" transform="translate(-265.92 555.21) rotate(-45)"/><rect class="cls-4" x="514.28" y="617.15" width="4.4" height="4.4" transform="translate(-286.67 546.61) rotate(-45)"/><rect class="cls-4" x="559.93" y="579.8" width="4.4" height="4.4" transform="translate(-246.89 567.95) rotate(-45)"/><rect class="cls-4" x="518.43" y="613" width="4.4" height="4.4" transform="translate(-282.52 548.33) rotate(-45)"/><rect class="cls-4" x="526.73" y="604.7" width="4.4" height="4.4" transform="translate(-274.22 551.77) rotate(-45)"/><rect class="cls-4" x="559.93" y="571.5" width="4.4" height="4.4" transform="translate(-241.02 565.52) rotate(-45)"/><rect class="cls-4" x="522.58" y="608.85" width="4.4" height="4.4" transform="translate(-278.37 550.05) rotate(-45)"/><rect class="cls-4" x="559.93" y="563.2" width="4.4" height="4.4" transform="translate(-235.15 563.09) rotate(-45)"/><path class="cls-4" d="M486.39,635.95l-3.11-3.11-2.06,2.06c1.06,1.03,2.15,2.02,3.27,2.95l1.9-1.9Z"/><rect class="cls-4" x="489.38" y="633.75" width="4.4" height="4.4" transform="translate(-305.71 533.87) rotate(-45)"/><rect class="cls-4" x="539.18" y="583.95" width="4.4" height="4.4" transform="translate(-255.9 554.5) rotate(-45)"/><rect class="cls-4" x="493.53" y="629.6" width="4.4" height="4.4" transform="translate(-301.56 535.59) rotate(-45)"/><path class="cls-4" d="M490.54,640.1l-3.11-3.11-1.79,1.79c1.17,.93,2.37,1.81,3.6,2.63l1.31-1.31Z"/><rect class="cls-4" x="564.08" y="575.65" width="4.4" height="4.4" transform="translate(-242.74 569.67) rotate(-45)"/><rect class="cls-4" x="555.78" y="567.35" width="4.4" height="4.4" transform="translate(-239.3 561.37) rotate(-45)"/><rect class="cls-4" x="547.48" y="575.65" width="4.4" height="4.4" transform="translate(-247.6 557.93) rotate(-45)"/><rect class="cls-4" x="551.63" y="571.5" width="4.4" height="4.4" transform="translate(-243.45 559.65) rotate(-45)"/><rect class="cls-4" x="501.83" y="621.3" width="4.4" height="4.4" transform="translate(-293.26 539.02) rotate(-45)"/><rect class="cls-4" x="514.28" y="608.85" width="4.4" height="4.4" transform="translate(-280.81 544.18) rotate(-45)"/><rect class="cls-4" x="510.13" y="613" width="4.4" height="4.4" transform="translate(-284.96 542.46) rotate(-45)"/><rect class="cls-4" x="518.43" y="604.7" width="4.4" height="4.4" transform="translate(-276.66 545.9) rotate(-45)"/><rect class="cls-4" x="505.98" y="617.15" width="4.4" height="4.4" transform="translate(-289.11 540.74) rotate(-45)"/><rect class="cls-4" x="522.58" y="600.55" width="4.4" height="4.4" transform="translate(-272.51 547.62) rotate(-45)"/><rect class="cls-4" x="530.88" y="592.25" width="4.4" height="4.4" transform="translate(-264.2 551.06) rotate(-45)"/><rect class="cls-4" x="535.03" y="588.1" width="4.4" height="4.4" transform="translate(-260.05 552.78) rotate(-45)"/><rect class="cls-4" x="543.33" y="579.8" width="4.4" height="4.4" transform="translate(-251.75 556.22) rotate(-45)"/><rect class="cls-4" x="526.73" y="596.4" width="4.4" height="4.4" transform="translate(-268.35 549.34) rotate(-45)"/><rect class="cls-4" x="547.48" y="600.55" width="4.4" height="4.4" transform="translate(-265.21 565.23) rotate(-45)"/><rect class="cls-4" x="530.88" y="617.15" width="4.4" height="4.4" transform="translate(-281.81 558.35) rotate(-45)"/><rect class="cls-4" x="526.73" y="621.3" width="4.4" height="4.4" transform="translate(-285.96 556.63) rotate(-45)"/><rect class="cls-4" x="535.03" y="613" width="4.4" height="4.4" transform="translate(-277.66 560.07) rotate(-45)"/><rect class="cls-4" x="551.63" y="596.4" width="4.4" height="4.4" transform="translate(-261.06 566.95) rotate(-45)"/><rect class="cls-4" x="555.78" y="592.25" width="4.4" height="4.4" transform="translate(-256.91 568.67) rotate(-45)"/><rect class="cls-4" x="518.43" y="629.6" width="4.4" height="4.4" transform="translate(-294.26 553.19) rotate(-45)"/><rect class="cls-4" x="539.18" y="608.85" width="4.4" height="4.4" transform="translate(-273.51 561.79) rotate(-45)"/><rect class="cls-4" x="543.33" y="613" width="4.4" height="4.4" transform="translate(-275.23 565.94) rotate(-45)"/><rect class="cls-4" x="543.33" y="604.7" width="4.4" height="4.4" transform="translate(-269.36 563.51) rotate(-45)"/><rect class="cls-4" x="555.78" y="583.95" width="4.4" height="4.4" transform="translate(-251.04 566.23) rotate(-45)"/><path class="cls-4" d="M504.03,645.29l-2.38,2.38c1.57,.56,3.16,1.04,4.77,1.46l.72-.72-3.11-3.11Z"/><rect class="cls-4" x="559.93" y="596.4" width="4.4" height="4.4" transform="translate(-258.63 572.82) rotate(-45)"/><rect class="cls-4" x="555.78" y="600.55" width="4.4" height="4.4" transform="translate(-262.78 571.1) rotate(-45)"/><rect class="cls-4" x="547.48" y="608.85" width="4.4" height="4.4" transform="translate(-271.08 567.66) rotate(-45)"/><rect class="cls-4" x="551.63" y="604.7" width="4.4" height="4.4" transform="translate(-266.93 569.38) rotate(-45)"/><rect class="cls-4" x="568.23" y="588.1" width="4.4" height="4.4" transform="translate(-250.33 576.25) rotate(-45)"/><rect class="cls-4" x="514.28" y="642.05" width="4.4" height="4.4" transform="translate(-304.28 553.91) rotate(-45)"/><rect class="cls-4" x="564.08" y="592.25" width="4.4" height="4.4" transform="translate(-254.48 574.54) rotate(-45)"/><rect class="cls-4" x="518.43" y="637.9" width="4.4" height="4.4" transform="translate(-300.13 555.63) rotate(-45)"/><rect class="cls-4" x="522.58" y="625.45" width="4.4" height="4.4" transform="translate(-290.11 554.91) rotate(-45)"/><rect class="cls-4" x="530.88" y="608.85" width="4.4" height="4.4" transform="translate(-275.94 555.92) rotate(-45)"/><rect class="cls-4" x="539.18" y="600.55" width="4.4" height="4.4" transform="translate(-267.64 559.36) rotate(-45)"/><rect class="cls-4" x="535.03" y="604.7" width="4.4" height="4.4" transform="translate(-271.79 557.64) rotate(-45)"/><rect class="cls-4" x="551.63" y="588.1" width="4.4" height="4.4" transform="translate(-255.19 564.52) rotate(-45)"/><rect class="cls-4" x="543.33" y="596.4" width="4.4" height="4.4" transform="translate(-263.49 561.08) rotate(-45)"/><rect class="cls-4" x="501.83" y="637.9" width="4.4" height="4.4" transform="translate(-305 543.89) rotate(-45)"/><rect class="cls-4" x="547.48" y="592.25" width="4.4" height="4.4" transform="translate(-259.34 562.8) rotate(-45)"/><rect class="cls-4" x="505.98" y="633.75" width="4.4" height="4.4" transform="translate(-300.84 545.61) rotate(-45)"/><rect class="cls-4" x="510.13" y="629.6" width="4.4" height="4.4" transform="translate(-296.69 547.32) rotate(-45)"/><rect class="cls-4" x="564.08" y="583.95" width="4.4" height="4.4" transform="translate(-248.61 572.1) rotate(-45)"/><rect class="cls-4" x="568.23" y="579.8" width="4.4" height="4.4" transform="translate(-244.46 573.82) rotate(-45)"/><rect class="cls-4" x="510.13" y="637.9" width="4.4" height="4.4" transform="translate(-302.56 549.76) rotate(-45)"/><rect class="cls-4" x="559.93" y="588.1" width="4.4" height="4.4" transform="translate(-252.76 570.38) rotate(-45)"/><rect class="cls-4" x="505.98" y="642.05" width="4.4" height="4.4" transform="translate(-306.71 548.04) rotate(-45)"/><rect class="cls-4" x="526.73" y="613" width="4.4" height="4.4" transform="translate(-280.09 554.2) rotate(-45)"/><rect class="cls-4" x="518.43" y="621.3" width="4.4" height="4.4" transform="translate(-288.39 550.76) rotate(-45)"/><rect class="cls-4" x="522.58" y="617.15" width="4.4" height="4.4" transform="translate(-284.24 552.48) rotate(-45)"/><rect class="cls-4" x="514.28" y="625.45" width="4.4" height="4.4" transform="translate(-292.54 549.04) rotate(-45)"/><rect class="cls-4" x="514.28" y="633.75" width="4.4" height="4.4" transform="translate(-298.41 551.47) rotate(-45)"/></g></g></g><g><path class="cls-3" d="M669.49,560.74h-67.77c-8.72,0-15.79-7.07-15.79-15.79h0c0-8.72,7.07-15.79,15.79-15.79h67.77c8.72,0,15.79,7.07,15.79,15.79h0c0,8.72-7.07,15.79-15.79,15.79Z"/><path class="cls-1" d="M619.81,560.74h-18.09c-8.72,0-15.79-7.07-15.79-15.79h0c0-8.72,7.07-15.79,15.79-15.79h49.67"/></g></g><g><path class="cls-5" d="M44.56,529.1h62.13c14.58,0,25.52,3.14,32.81,9.41,7.73,6.71,11.59,15.24,11.59,25.59s-3.94,18.96-11.81,24.94c12.98,6.71,19.47,16.77,19.47,30.19,0,5.11-.77,9.7-2.3,13.78-1.53,4.08-3.36,7.4-5.47,9.95-2.12,2.55-4.92,4.78-8.42,6.67-3.5,1.9-6.67,3.28-9.52,4.16s-6.38,1.53-10.61,1.97c-4.23,.44-7.4,.69-9.52,.77-2.12,.08-4.85,.11-8.2,.11H44.56v-17.94h17.72v-91.66h-17.72v-17.94Zm61.69,17.94h-24.94v34.34h23.84c3.21,0,5.91-.14,8.09-.44,2.19-.29,4.92-.95,8.2-1.97,3.28-1.02,5.8-2.88,7.55-5.58,1.75-2.7,2.62-6.16,2.62-10.39,0-10.64-8.46-15.97-25.38-15.97Zm-2.84,52.28h-22.09v39.38h22.97c5.83,0,10.57-.18,14.22-.55,3.64-.36,7.18-1.13,10.61-2.3,3.42-1.17,5.94-3.03,7.55-5.58,1.6-2.55,2.41-5.87,2.41-9.95,0-14-11.89-21-35.66-21Z"/><path class="cls-5" d="M177.34,606.32c0-15.02,5.14-27.67,15.42-37.95s24.03-15.42,41.24-15.42,31.32,5.25,41.45,15.75c10.13,10.5,15.2,23.04,15.2,37.62s-4.96,26.76-14.88,37.41c-9.92,10.65-23.84,15.97-41.78,15.97s-31.5-5.25-41.56-15.75-15.09-23.04-15.09-37.63Zm20.12,0c0,9.48,3.24,17.61,9.73,24.39,6.49,6.78,15.42,10.17,26.8,10.17s20.67-3.42,27.02-10.28c6.34-6.85,9.52-14.95,9.52-24.28s-3.17-17.42-9.52-24.28c-6.34-6.85-15.35-10.28-27.02-10.28s-20.49,3.36-26.91,10.06c-6.42,6.71-9.62,14.88-9.62,24.5Z"/><path class="cls-5" d="M334.41,529.1h19.03v30.63h49.88v17.94h-49.88v36.75c0,4.08,.03,7,.11,8.75,.07,1.75,.4,4.05,.98,6.89,.58,2.84,1.42,4.85,2.52,6.02,1.09,1.17,2.77,2.26,5.03,3.28,2.26,1.02,5.07,1.53,8.42,1.53,4.08,0,8.31-.51,12.69-1.53,4.38-1.02,7.91-2.04,10.61-3.06,2.7-1.02,6.89-2.7,12.58-5.03l7-2.84,7.22,17.28c-20.27,9.33-36.39,14-48.34,14-12.69,0-22.24-3.28-28.66-9.84-3.94-4.23-6.45-9.08-7.55-14.55s-1.64-12.43-1.64-20.89v-36.75h-14.44v-17.94h14.44v-30.63Z"/></g></g></svg>